<svg width="359" height="144" viewBox="0 0 359 144" fill="none" xmlns="http://www.w3.org/2000/svg">
<path d="M74.9024 72.7681L60.8182 33.8776C60.1247 32.1527 59.4045 30.1044 58.6576 27.7327C57.9107 25.361 57.1638 22.8007 56.4169 20.0517C55.7234 22.8007 55.0031 25.388 54.2563 27.8136C53.5094 30.1853 52.7891 32.2605 52.0956 34.0393L38.0914 72.7681H74.9024ZM112.914 116.914H96.2688C94.4016 116.914 92.8811 116.456 91.7075 115.54C90.5338 114.569 89.6535 113.383 89.0667 111.982L80.4241 88.1303H32.4897L23.8471 111.982C23.4203 113.222 22.5934 114.354 21.3664 115.378C20.1394 116.402 18.6189 116.914 16.805 116.914H0L45.5336 0H67.4602L112.914 116.914Z" fill="white"/>
<path d="M141.38 95.4071C143.621 98.1561 146.048 100.097 148.662 101.229C151.329 102.36 154.21 102.926 157.305 102.926C160.292 102.926 162.986 102.36 165.387 101.229C167.788 100.097 169.815 98.3717 171.469 96.0539C173.176 93.7361 174.483 90.8254 175.39 87.3217C176.297 83.7642 176.75 79.5867 176.75 74.7894C176.75 69.9382 176.35 65.8417 175.55 62.4997C174.803 59.1039 173.71 56.3549 172.269 54.2527C170.829 52.1505 169.068 50.6143 166.987 49.644C164.96 48.6738 162.64 48.1887 160.025 48.1887C155.918 48.1887 152.423 49.078 149.542 50.8568C146.661 52.5817 143.941 55.0343 141.38 58.2145V95.4071ZM140.34 45.2779C143.701 41.4509 147.515 38.3515 151.783 35.9798C156.051 33.6081 161.066 32.4222 166.827 32.4222C171.309 32.4222 175.39 33.3655 179.071 35.2521C182.806 37.1387 186.007 39.8877 188.674 43.4992C191.395 47.0567 193.475 51.4767 194.916 56.7591C196.41 61.9876 197.157 67.9978 197.157 74.7894C197.157 80.9882 196.33 86.7288 194.676 92.0112C193.022 97.2936 190.648 101.875 187.554 105.756C184.513 109.637 180.805 112.683 176.43 114.893C172.109 117.049 167.254 118.127 161.866 118.127C157.278 118.127 153.357 117.426 150.102 116.025C146.848 114.569 143.941 112.575 141.38 110.042V144H121.614V33.9585H133.698C136.258 33.9585 137.939 35.1713 138.739 37.5969L140.34 45.2779Z" fill="white"/>
<path d="M232.345 95.4071C234.585 98.1561 237.013 100.097 239.627 101.229C242.294 102.36 245.175 102.926 248.269 102.926C251.257 102.926 253.951 102.36 256.352 101.229C258.752 100.097 260.78 98.3717 262.434 96.0539C264.141 93.7361 265.448 90.8254 266.355 87.3217C267.262 83.7642 267.715 79.5867 267.715 74.7894C267.715 69.9382 267.315 65.8417 266.515 62.4997C265.768 59.1039 264.674 56.3549 263.234 54.2527C261.793 52.1505 260.033 50.6143 257.952 49.644C255.925 48.6738 253.604 48.1887 250.99 48.1887C246.882 48.1887 243.388 49.078 240.507 50.8568C237.626 52.5817 234.905 55.0343 232.345 58.2145V95.4071ZM231.304 45.2779C234.665 41.4509 238.48 38.3515 242.748 35.9798C247.016 33.6081 252.03 32.4222 257.792 32.4222C262.274 32.4222 266.355 33.3655 270.036 35.2521C273.77 37.1387 276.971 39.8877 279.639 43.4992C282.36 47.0567 284.44 51.4767 285.881 56.7591C287.374 61.9876 288.121 67.9978 288.121 74.7894C288.121 80.9882 287.294 86.7288 285.641 92.0112C283.987 97.2936 281.613 101.875 278.518 105.756C275.477 109.637 271.77 112.683 267.395 114.893C263.074 117.049 258.219 118.127 252.831 118.127C248.243 118.127 244.321 117.426 241.067 116.025C237.813 114.569 234.905 112.575 232.345 110.042V144H212.579V33.9585H224.662C227.223 33.9585 228.904 35.1713 229.704 37.5969L231.304 45.2779Z" fill="white"/>
<path d="M353.638 50.1291C353.105 50.9916 352.545 51.6115 351.958 51.9888C351.371 52.3122 350.624 52.4739 349.717 52.4739C348.757 52.4739 347.717 52.2044 346.596 51.6654C345.529 51.1263 344.276 50.5334 342.835 49.8866C341.395 49.1858 339.741 48.566 337.874 48.0269C336.06 47.4879 333.899 47.2184 331.392 47.2184C327.497 47.2184 324.43 48.0539 322.189 49.7249C320.002 51.3958 318.908 53.5789 318.908 56.274C318.908 58.0528 319.468 59.562 320.588 60.8018C321.762 61.9876 323.283 63.0387 325.15 63.9551C327.07 64.8714 329.231 65.7069 331.632 66.4615C334.033 67.1623 336.46 67.9439 338.914 68.8063C341.421 69.6687 343.875 70.6659 346.276 71.7979C348.677 72.8759 350.811 74.2774 352.678 76.0022C354.599 77.6732 356.119 79.6945 357.239 82.0663C358.413 84.438 359 87.2948 359 90.6367C359 94.6255 358.28 98.3178 356.839 101.714C355.452 105.056 353.372 107.966 350.597 110.446C347.823 112.871 344.382 114.785 340.274 116.186C336.22 117.534 331.525 118.208 326.19 118.208C323.363 118.208 320.588 117.938 317.868 117.399C315.2 116.914 312.613 116.213 310.105 115.297C307.651 114.381 305.357 113.303 303.223 112.063C301.143 110.823 299.302 109.476 297.702 108.02L302.263 100.42C302.85 99.5037 303.543 98.8029 304.344 98.3178C305.144 97.8327 306.158 97.5901 307.385 97.5901C308.612 97.5901 309.759 97.9405 310.826 98.6412C311.946 99.3419 313.226 100.097 314.667 100.905C316.107 101.714 317.788 102.468 319.708 103.169C321.682 103.87 324.163 104.22 327.15 104.22C329.498 104.22 331.498 103.951 333.152 103.412C334.859 102.819 336.247 102.064 337.314 101.148C338.434 100.231 339.234 99.1802 339.714 97.9944C340.248 96.7546 340.514 95.4879 340.514 94.1943C340.514 92.2538 339.928 90.6637 338.754 89.4239C337.634 88.1842 336.113 87.1061 334.193 86.1898C332.325 85.2734 330.165 84.4649 327.711 83.7642C325.31 83.0095 322.829 82.201 320.268 81.3386C317.761 80.4761 315.28 79.4789 312.826 78.347C310.425 77.1611 308.265 75.6788 306.344 73.9001C304.477 72.1213 302.957 69.9382 301.783 67.3509C300.663 64.7636 300.102 61.6373 300.102 57.9719C300.102 54.5761 300.769 51.3419 302.103 48.2695C303.437 45.1971 305.384 42.5289 307.945 40.265C310.559 37.9472 313.786 36.1145 317.628 34.767C321.522 33.3655 326.003 32.6648 331.072 32.6648C336.727 32.6648 341.875 33.6081 346.516 35.4947C351.158 37.3812 355.025 39.8608 358.12 42.9332L353.638 50.1291Z" fill="white"/>
</svg>
