<svg width="664" height="125" viewBox="0 0 664 125" fill="none" xmlns="http://www.w3.org/2000/svg">
<path d="M168.011 3.32889L131.533 123.668H111.791L86.1177 41.4447C85.4136 39.4474 84.7637 37.0062 84.1679 34.1212C83.8429 35.5082 83.5179 36.812 83.193 38.0326C82.868 39.2532 82.5159 40.3906 82.1368 41.4447L56.2202 123.668H36.3969L0 3.32889H18.2797C20.1754 3.32889 21.7461 3.80049 22.9918 4.74368C24.2917 5.63138 25.1583 6.85197 25.5916 8.40546L45.5774 80.3928C46.0107 82.1682 46.4169 84.1101 46.796 86.2184C47.2293 88.2712 47.6626 90.435 48.0959 92.7097C48.5292 90.3795 48.9896 88.188 49.4771 86.1352C50.0187 84.0823 50.5874 82.1682 51.1832 80.3928L74.2562 8.40546C74.6895 7.12938 75.529 5.96427 76.7747 4.91012C78.0746 3.85597 79.6453 3.32889 81.4869 3.32889H87.9051C89.8007 3.32889 91.3443 3.80049 92.5359 4.74368C93.7275 5.68686 94.6212 6.90746 95.2169 8.40546L118.209 80.3928C119.346 83.8327 120.375 87.7996 121.296 92.2936C122 87.9106 122.785 83.9436 123.652 80.3928L143.638 8.40546C143.963 7.01842 144.775 5.82556 146.075 4.82689C147.429 3.82823 149.027 3.32889 150.868 3.32889H168.011Z" fill="white"/>
<path d="M223.132 71.1551C223.132 68.492 222.753 65.9953 221.994 63.6651C221.29 61.2794 220.207 59.1988 218.745 57.4234C217.282 55.648 215.414 54.261 213.139 53.2623C210.918 52.2082 208.318 51.6811 205.339 51.6811C199.544 51.6811 194.967 53.3733 191.609 56.7577C188.305 60.142 186.193 64.9412 185.272 71.1551H223.132ZM184.866 83.5553C185.191 87.9383 185.949 91.7388 187.141 94.9567C188.333 98.1192 189.903 100.755 191.853 102.863C193.803 104.916 196.105 106.469 198.759 107.523C201.467 108.522 204.446 109.021 207.695 109.021C210.945 109.021 213.735 108.633 216.064 107.856C218.447 107.079 220.505 106.219 222.238 105.276C224.025 104.333 225.569 103.473 226.869 102.696C228.223 101.92 229.523 101.531 230.769 101.531C232.448 101.531 233.693 102.169 234.506 103.445L240.274 110.935C238.053 113.599 235.562 115.846 232.8 117.676C230.037 119.452 227.14 120.894 224.107 122.004C221.128 123.058 218.068 123.807 214.926 124.251C211.839 124.695 208.833 124.917 205.908 124.917C200.113 124.917 194.724 123.946 189.741 122.004C184.758 120.007 180.425 117.094 176.742 113.266C173.059 109.382 170.161 104.611 168.049 98.9514C165.937 93.2368 164.88 86.6345 164.88 79.1445C164.88 73.3189 165.801 67.854 167.643 62.7497C169.484 57.5899 172.111 53.1236 175.523 49.3509C178.99 45.5226 183.187 42.4989 188.116 40.2796C193.099 38.0604 198.705 36.9507 204.933 36.9507C210.187 36.9507 215.034 37.8107 219.476 39.5306C223.917 41.2506 227.735 43.775 230.931 47.1039C234.127 50.3773 236.618 54.4274 238.405 59.2543C240.247 64.0257 241.168 69.4907 241.168 75.6491C241.168 78.7561 240.843 80.8644 240.193 81.974C239.543 83.0282 238.297 83.5553 236.456 83.5553H184.866Z" fill="white"/>
<path d="M276.294 101.531C278.569 104.361 281.033 106.358 283.687 107.523C286.395 108.688 289.239 109.271 292.218 109.271C295.305 109.271 298.067 108.716 300.504 107.607C302.996 106.441 305.108 104.666 306.841 102.28C308.575 99.8391 309.901 96.7599 310.822 93.0426C311.743 89.2699 312.203 84.7759 312.203 79.5606C312.203 70.1842 310.687 63.4154 307.654 59.2543C304.621 55.0377 300.261 52.9294 294.574 52.9294C290.728 52.9294 287.37 53.8449 284.499 55.6758C281.629 57.4512 278.894 59.9756 276.294 63.249V101.531ZM276.294 48.7683C279.652 45.162 283.362 42.3047 287.424 40.1964C291.541 38.0326 296.226 36.9507 301.479 36.9507C306.3 36.9507 310.633 37.9217 314.478 39.8635C318.378 41.8054 321.682 44.6072 324.39 48.269C327.152 51.8753 329.264 56.2583 330.727 61.4181C332.189 66.5779 332.92 72.3757 332.92 78.8116C332.92 85.7468 332.081 92.0439 330.402 97.7031C328.723 103.362 326.313 108.217 323.171 112.267C320.084 116.262 316.347 119.369 311.96 121.588C307.572 123.807 302.698 124.917 297.336 124.917C294.736 124.917 292.38 124.639 290.268 124.085C288.155 123.585 286.206 122.864 284.418 121.921C282.631 120.978 280.979 119.84 279.462 118.509C278 117.122 276.592 115.596 275.238 113.931L274.344 119.674C274.019 121.116 273.45 122.143 272.638 122.753C271.88 123.363 270.824 123.668 269.469 123.668H256.227V0H276.294V48.7683Z" fill="white"/>
<path d="M399.277 54.9268C398.735 55.8145 398.167 56.4525 397.571 56.8409C396.975 57.1738 396.217 57.3402 395.296 57.3402C394.321 57.3402 393.265 57.0628 392.128 56.508C391.044 55.9532 389.771 55.3429 388.309 54.6771C386.847 53.9558 385.168 53.3178 383.272 52.763C381.431 52.2082 379.237 51.9308 376.691 51.9308C372.738 51.9308 369.623 52.7907 367.348 54.5107C365.128 56.2306 364.017 58.4776 364.017 61.2517C364.017 63.0826 364.586 64.636 365.724 65.9121C366.915 67.1327 368.459 68.2146 370.354 69.1578C372.304 70.101 374.498 70.9609 376.935 71.7377C379.372 72.4589 381.837 73.2634 384.328 74.1511C386.874 75.0388 389.365 76.0652 391.803 77.2304C394.24 78.34 396.406 79.7825 398.302 81.5579C400.252 83.2779 401.795 85.3584 402.933 87.7996C404.124 90.2408 404.72 93.1813 404.72 96.6212C404.72 100.727 403.989 104.527 402.527 108.023C401.118 111.462 399.006 114.458 396.19 117.011C393.373 119.507 389.88 121.477 385.709 122.919C381.593 124.306 376.827 125 371.411 125C368.54 125 365.724 124.723 362.961 124.168C360.253 123.668 357.626 122.947 355.081 122.004C352.589 121.061 350.26 119.951 348.094 118.675C345.981 117.399 344.113 116.012 342.488 114.514L347.119 106.691C347.715 105.748 348.419 105.027 349.231 104.527C350.044 104.028 351.073 103.778 352.318 103.778C353.564 103.778 354.729 104.139 355.812 104.86C356.949 105.581 358.249 106.358 359.712 107.19C361.174 108.023 362.88 108.799 364.83 109.521C366.834 110.242 369.352 110.603 372.385 110.603C374.769 110.603 376.8 110.325 378.479 109.77C380.212 109.16 381.62 108.383 382.703 107.44C383.841 106.497 384.653 105.415 385.141 104.194C385.682 102.918 385.953 101.615 385.953 100.283C385.953 98.2856 385.357 96.6489 384.166 95.3728C383.028 94.0968 381.485 92.9871 379.535 92.0439C377.639 91.1008 375.446 90.2685 372.954 89.5473C370.517 88.7705 367.998 87.9383 365.399 87.0506C362.853 86.1629 360.334 85.1365 357.843 83.9714C355.406 82.7508 353.212 81.225 351.262 79.3941C349.367 77.5632 347.823 75.3162 346.631 72.6531C345.494 69.99 344.925 66.7721 344.925 62.9993C344.925 59.504 345.602 56.1751 346.956 53.0126C348.31 49.8502 350.287 47.1039 352.887 44.7736C355.541 42.3879 358.818 40.5016 362.718 39.1145C366.671 37.672 371.221 36.9507 376.366 36.9507C382.108 36.9507 387.334 37.9217 392.046 39.8635C396.758 41.8054 400.685 44.3575 403.827 47.52L399.277 54.9268Z" fill="white"/>
<path d="M440.622 38.2823V123.668H420.474V38.2823H440.622ZM443.384 13.3988C443.384 15.1742 443.032 16.8387 442.328 18.3921C441.624 19.9456 440.676 21.3049 439.485 22.47C438.347 23.6352 436.993 24.5783 435.422 25.2996C433.852 25.9654 432.173 26.2983 430.385 26.2983C428.652 26.2983 427 25.9654 425.43 25.2996C423.913 24.5783 422.586 23.6352 421.449 22.47C420.311 21.3049 419.391 19.9456 418.686 18.3921C418.036 16.8387 417.712 15.1742 417.712 13.3988C417.712 11.5679 418.036 9.84798 418.686 8.23901C419.391 6.63005 420.311 5.24301 421.449 4.0779C422.586 2.91278 423.913 1.99734 425.43 1.33156C427 0.610299 428.652 0.249669 430.385 0.249669C432.173 0.249669 433.852 0.610299 435.422 1.33156C436.993 1.99734 438.347 2.91278 439.485 4.0779C440.676 5.24301 441.624 6.63005 442.328 8.23901C443.032 9.84798 443.384 11.5679 443.384 13.3988Z" fill="white"/>
<path d="M488.865 125C481.608 125 476.029 122.919 472.129 118.758C468.284 114.542 466.361 108.744 466.361 101.365V53.6784H457.83C456.747 53.6784 455.826 53.3178 455.068 52.5965C454.31 51.8753 453.931 50.7934 453.931 49.3509V41.1951L467.336 38.9481L471.56 15.6458C471.831 14.5362 472.346 13.6762 473.104 13.0659C473.862 12.4556 474.837 12.1505 476.029 12.1505H486.428V39.0313H508.689V53.6784H486.428V99.9501C486.428 102.613 487.051 104.694 488.297 106.192C489.596 107.69 491.357 108.439 493.577 108.439C494.823 108.439 495.852 108.3 496.665 108.023C497.531 107.69 498.262 107.357 498.858 107.024C499.508 106.691 500.077 106.386 500.564 106.109C501.052 105.776 501.539 105.609 502.027 105.609C502.622 105.609 503.11 105.776 503.489 106.109C503.868 106.386 504.274 106.83 504.708 107.44L510.72 117.427C507.795 119.923 504.437 121.81 500.645 123.086C496.854 124.362 492.927 125 488.865 125Z" fill="white"/>
<path d="M574.603 71.1551C574.603 68.492 574.224 65.9953 573.466 63.6651C572.762 61.2794 571.679 59.1988 570.216 57.4234C568.754 55.648 566.885 54.261 564.61 53.2623C562.39 52.2082 559.79 51.6811 556.811 51.6811C551.016 51.6811 546.439 53.3733 543.081 56.7577C539.777 60.142 537.665 64.9412 536.744 71.1551H574.603ZM536.338 83.5553C536.663 87.9383 537.421 91.7388 538.613 94.9567C539.804 98.1192 541.375 100.755 543.325 102.863C545.275 104.916 547.576 106.469 550.23 107.523C552.939 108.522 555.917 109.021 559.167 109.021C562.417 109.021 565.206 108.633 567.535 107.856C569.918 107.079 571.977 106.219 573.71 105.276C575.497 104.333 577.041 103.473 578.341 102.696C579.695 101.92 580.995 101.531 582.24 101.531C583.919 101.531 585.165 102.169 585.977 103.445L591.746 110.935C589.525 113.599 587.034 115.846 584.271 117.676C581.509 119.452 578.611 120.894 575.578 122.004C572.599 123.058 569.539 123.807 566.398 124.251C563.311 124.695 560.305 124.917 557.38 124.917C551.584 124.917 546.195 123.946 541.212 122.004C536.23 120.007 531.897 117.094 528.214 113.266C524.531 109.382 521.633 104.611 519.521 98.9514C517.408 93.2368 516.352 86.6345 516.352 79.1445C516.352 73.3189 517.273 67.854 519.114 62.7497C520.956 57.5899 523.583 53.1236 526.995 49.3509C530.461 45.5226 534.659 42.4989 539.588 40.2796C544.57 38.0604 550.176 36.9507 556.405 36.9507C561.659 36.9507 566.506 37.8107 570.947 39.5306C575.389 41.2506 579.207 43.775 582.403 47.1039C585.598 50.3773 588.09 54.4274 589.877 59.2543C591.719 64.0257 592.639 69.4907 592.639 75.6491C592.639 78.7561 592.314 80.8644 591.664 81.974C591.014 83.0282 589.769 83.5553 587.927 83.5553H536.338Z" fill="white"/>
<path d="M658.557 54.9268C658.015 55.8145 657.446 56.4525 656.851 56.8409C656.255 57.1738 655.497 57.3402 654.576 57.3402C653.601 57.3402 652.545 57.0628 651.407 56.508C650.324 55.9532 649.051 55.3429 647.589 54.6771C646.127 53.9558 644.447 53.3178 642.552 52.763C640.71 52.2082 638.517 51.9308 635.971 51.9308C632.017 51.9308 628.903 52.7907 626.628 54.5107C624.408 56.2306 623.297 58.4776 623.297 61.2517C623.297 63.0826 623.866 64.636 625.003 65.9121C626.195 67.1327 627.738 68.2146 629.634 69.1578C631.584 70.101 633.778 70.9609 636.215 71.7377C638.652 72.4589 641.116 73.2634 643.608 74.1511C646.154 75.0388 648.645 76.0652 651.082 77.2304C653.52 78.34 655.686 79.7825 657.582 81.5579C659.532 83.2779 661.075 85.3584 662.213 87.7996C663.404 90.2408 664 93.1813 664 96.6212C664 100.727 663.269 104.527 661.806 108.023C660.398 111.462 658.286 114.458 655.469 117.011C652.653 119.507 649.16 121.477 644.989 122.919C640.873 124.306 636.107 125 630.69 125C627.82 125 625.003 124.723 622.241 124.168C619.533 123.668 616.906 122.947 614.36 122.004C611.869 121.061 609.54 119.951 607.374 118.675C605.261 117.399 603.393 116.012 601.768 114.514L606.399 106.691C606.994 105.748 607.699 105.027 608.511 104.527C609.323 104.028 610.352 103.778 611.598 103.778C612.844 103.778 614.008 104.139 615.092 104.86C616.229 105.581 617.529 106.358 618.991 107.19C620.454 108.023 622.16 108.799 624.11 109.521C626.114 110.242 628.632 110.603 631.665 110.603C634.048 110.603 636.079 110.325 637.758 109.77C639.492 109.16 640.9 108.383 641.983 107.44C643.121 106.497 643.933 105.415 644.42 104.194C644.962 102.918 645.233 101.615 645.233 100.283C645.233 98.2856 644.637 96.6489 643.446 95.3728C642.308 94.0968 640.764 92.9871 638.815 92.0439C636.919 91.1008 634.725 90.2685 632.234 89.5473C629.797 88.7705 627.278 87.9383 624.678 87.0506C622.133 86.1629 619.614 85.1365 617.123 83.9714C614.685 82.7508 612.492 81.225 610.542 79.3941C608.646 77.5632 607.103 75.3162 605.911 72.6531C604.774 69.99 604.205 66.7721 604.205 62.9993C604.205 59.504 604.882 56.1751 606.236 53.0126C607.59 49.8502 609.567 47.1039 612.167 44.7736C614.821 42.3879 618.098 40.5016 621.997 39.1145C625.951 37.672 630.501 36.9507 635.646 36.9507C641.387 36.9507 646.614 37.9217 651.326 39.8635C656.038 41.8054 659.965 44.3575 663.106 47.52L658.557 54.9268Z" fill="white"/>
</svg>
