<svg width="557" height="135" viewBox="0 0 557 135" fill="none" xmlns="http://www.w3.org/2000/svg">
<mask id="path-1-outside-1" maskUnits="userSpaceOnUse" x="0" y="0" width="557" height="135" fill="black">
<rect fill="white" width="557" height="135"/>
<path d="M40.3245 92.5014C43.8665 92.5014 46.8418 92.0758 49.2504 91.2247C51.6589 90.3736 53.5716 89.2388 54.9884 87.8202C56.4524 86.4017 57.4914 84.7468 58.1054 82.8554C58.7665 80.9641 59.0971 78.9545 59.0971 76.8267C59.0971 74.6044 58.7429 72.6185 58.0345 70.869C57.3261 69.0722 56.2163 67.5591 54.705 66.3297C53.1938 65.0531 51.2339 64.0837 48.8253 63.4218C46.464 62.7598 43.6068 62.4288 40.2537 62.4288H21.056V92.5014H40.3245ZM21.056 19.5896V49.2366H36.2158C42.7331 49.2366 47.6446 48.0545 50.9505 45.6903C54.3036 43.3261 55.9802 39.567 55.9802 34.4131C55.9802 29.07 54.4689 25.2637 51.4464 22.994C48.4239 20.7244 43.7012 19.5896 37.2784 19.5896H21.056ZM37.2784 4.83703C43.9846 4.83703 49.7226 5.47536 54.4925 6.75203C59.2624 8.02869 63.1586 9.84912 66.1811 12.2133C69.2509 14.5775 71.4941 17.4382 72.9109 20.7953C74.3277 24.1525 75.0362 27.9352 75.0362 32.1435C75.0362 34.555 74.682 36.8719 73.9736 39.0942C73.2652 41.2693 72.1553 43.3261 70.6441 45.2648C69.18 47.1561 67.291 48.882 64.9769 50.4423C62.71 52.0027 59.9944 53.3267 56.8302 54.4142C70.9038 57.5822 77.9406 65.1949 77.9406 77.2523C77.9406 81.6024 77.1141 85.6216 75.4612 89.3097C73.8083 92.9978 71.3997 96.1895 68.2355 98.8847C65.0713 101.533 61.1751 103.613 56.5469 105.126C51.9187 106.639 46.6293 107.396 40.6787 107.396H2V4.83703H37.2784Z"/>
<path d="M107.614 47.2507C109.881 42.9006 112.573 39.4961 115.69 37.0374C118.806 34.5313 122.49 33.2783 126.741 33.2783C130.094 33.2783 132.786 34.0112 134.816 35.477L133.683 48.5983C133.447 49.4494 133.093 50.0641 132.62 50.4423C132.195 50.7733 131.605 50.9388 130.849 50.9388C130.141 50.9388 129.078 50.8206 127.661 50.5842C126.292 50.3478 124.946 50.2296 123.624 50.2296C121.687 50.2296 119.964 50.5133 118.452 51.0807C116.941 51.6481 115.571 52.4755 114.344 53.5631C113.163 54.6033 112.1 55.88 111.156 57.3931C110.258 58.9062 109.408 60.632 108.605 62.5707V107.396H91.108V34.6259H101.38C103.174 34.6259 104.426 34.9569 105.134 35.6188C105.843 36.2335 106.315 37.3683 106.551 39.0233L107.614 47.2507Z"/>
<path d="M181.388 76.3303C176.335 76.5667 172.085 77.0159 168.637 77.6779C165.189 78.2925 162.427 79.0964 160.349 80.0893C158.271 81.0823 156.783 82.2408 155.886 83.5647C154.988 84.8887 154.54 86.3308 154.54 87.8912C154.54 90.9646 155.437 93.1633 157.232 94.4873C159.074 95.8112 161.459 96.4732 164.387 96.4732C167.976 96.4732 171.069 95.8349 173.667 94.5582C176.311 93.2342 178.885 91.2483 181.388 88.6004V76.3303ZM141.293 44.7683C149.652 37.1083 159.711 33.2783 171.471 33.2783C175.721 33.2783 179.523 33.9875 182.876 35.4061C186.229 36.7773 189.063 38.7159 191.377 41.222C193.691 43.6807 195.438 46.636 196.619 50.0877C197.847 53.5394 198.461 57.3221 198.461 61.4358V107.396H190.527C188.874 107.396 187.599 107.159 186.701 106.687C185.804 106.166 185.095 105.15 184.576 103.637L183.018 98.3882C181.176 100.043 179.381 101.509 177.634 102.786C175.886 104.015 174.068 105.055 172.179 105.906C170.29 106.757 168.259 107.396 166.087 107.821C163.962 108.294 161.6 108.531 159.003 108.531C155.933 108.531 153.099 108.129 150.502 107.325C147.904 106.474 145.661 105.221 143.772 103.566C141.883 101.911 140.419 99.854 139.38 97.3952C138.341 94.9365 137.822 92.0758 137.822 88.8132C137.822 86.9691 138.128 85.1487 138.742 83.3519C139.356 81.5078 140.348 79.7584 141.718 78.1034C143.135 76.4485 144.953 74.8881 147.172 73.4223C149.392 71.9565 152.108 70.6798 155.319 69.5923C158.578 68.5048 162.356 67.63 166.653 66.9681C170.951 66.2588 175.863 65.8332 181.388 65.6914V61.4358C181.388 56.5656 180.349 52.972 178.271 50.6551C176.193 48.2909 173.194 47.1088 169.275 47.1088C166.441 47.1088 164.08 47.4398 162.191 48.1018C160.349 48.7638 158.719 49.5203 157.303 50.3714C155.886 51.1752 154.587 51.9081 153.406 52.5701C152.273 53.2321 150.998 53.5631 149.581 53.5631C148.353 53.5631 147.314 53.2557 146.464 52.641C145.614 51.9791 144.929 51.2225 144.41 50.3714L141.293 44.7683Z"/>
<path d="M231.304 43.5625C232.768 42.0967 234.303 40.7491 235.908 39.5198C237.561 38.2431 239.285 37.1792 241.08 36.3281C242.922 35.4297 244.882 34.7441 246.96 34.2713C249.038 33.7511 251.304 33.4911 253.76 33.4911C257.727 33.4911 261.246 34.1767 264.315 35.5479C267.385 36.8719 269.935 38.7632 271.966 41.222C274.044 43.6335 275.603 46.5414 276.642 49.9459C277.728 53.303 278.271 57.0148 278.271 61.0812V107.396H260.773V61.0812C260.773 56.6365 259.758 53.2084 257.727 50.797C255.697 48.3382 252.603 47.1088 248.447 47.1088C245.425 47.1088 242.591 47.7944 239.946 49.1657C237.302 50.5369 234.799 52.4046 232.437 54.7688V107.396H214.94V34.6259H225.637C227.904 34.6259 229.391 35.6898 230.1 37.8175L231.304 43.5625Z"/>
<path d="M340.533 53.2084C338.549 50.797 336.377 49.0947 334.015 48.1018C331.701 47.1088 329.198 46.6123 326.506 46.6123C323.862 46.6123 321.477 47.1088 319.352 48.1018C317.226 49.0947 315.408 50.6078 313.897 52.641C312.386 54.627 311.229 57.1803 310.426 60.301C309.623 63.3745 309.221 67.0153 309.221 71.2236C309.221 75.4792 309.552 79.0964 310.213 82.0753C310.922 85.0069 311.913 87.4183 313.188 89.3097C314.464 91.1538 316.022 92.5014 317.864 93.3525C319.706 94.1563 321.76 94.5582 324.027 94.5582C327.663 94.5582 330.757 93.8017 333.307 92.2886C335.857 90.7755 338.266 88.6241 340.533 85.8343V53.2084ZM358.03 2V107.396H347.333C345.019 107.396 343.555 106.332 342.941 104.204L341.454 97.1825C338.526 100.54 335.149 103.258 331.323 105.339C327.545 107.419 323.13 108.46 318.076 108.46C314.109 108.46 310.473 107.632 307.167 105.977C303.861 104.322 301.004 101.934 298.595 98.8138C296.234 95.6457 294.392 91.7448 293.07 87.111C291.795 82.4772 291.157 77.1814 291.157 71.2236C291.157 65.8332 291.889 60.8212 293.353 56.1873C294.817 51.5535 296.919 47.5344 299.658 44.1299C302.397 40.7255 305.679 38.0776 309.505 36.1862C313.33 34.2476 317.628 33.2783 322.398 33.2783C326.459 33.2783 329.93 33.9166 332.811 35.1933C335.692 36.47 338.266 38.1958 340.533 40.3709V2H358.03Z"/>
<path d="M393.434 34.6259V107.396H375.865V34.6259H393.434ZM395.842 13.4191C395.842 14.9321 395.535 16.3507 394.921 17.6746C394.307 18.9986 393.481 20.157 392.442 21.15C391.45 22.1429 390.269 22.9468 388.9 23.5615C387.53 24.1289 386.066 24.4126 384.508 24.4126C382.997 24.4126 381.556 24.1289 380.187 23.5615C378.864 22.9468 377.707 22.1429 376.715 21.15C375.724 20.157 374.921 18.9986 374.307 17.6746C373.74 16.3507 373.457 14.9321 373.457 13.4191C373.457 11.8587 373.74 10.3929 374.307 9.02165C374.921 7.65043 375.724 6.46833 376.715 5.47537C377.707 4.4824 378.864 3.70222 380.187 3.13482C381.556 2.52012 382.997 2.21278 384.508 2.21278C386.066 2.21278 387.53 2.52012 388.9 3.13482C390.269 3.70222 391.45 4.4824 392.442 5.47537C393.481 6.46833 394.307 7.65043 394.921 9.02165C395.535 10.3929 395.842 11.8587 395.842 13.4191Z"/>
<path d="M427.636 43.5625C429.1 42.0967 430.635 40.7491 432.241 39.5198C433.894 38.2431 435.617 37.1792 437.412 36.3281C439.254 35.4297 441.214 34.7441 443.292 34.2713C445.37 33.7511 447.637 33.4911 450.092 33.4911C454.06 33.4911 457.578 34.1767 460.648 35.5479C463.717 36.8719 466.268 38.7632 468.298 41.222C470.376 43.6335 471.935 46.5414 472.974 49.9459C474.06 53.303 474.603 57.0148 474.603 61.0812V107.396H457.106V61.0812C457.106 56.6365 456.09 53.2084 454.059 50.797C452.029 48.3382 448.935 47.1088 444.779 47.1088C441.757 47.1088 438.923 47.7944 436.279 49.1657C433.634 50.5369 431.131 52.4046 428.77 54.7688V107.396H411.272V34.6259H421.969C424.236 34.6259 425.723 35.6898 426.432 37.8175L427.636 43.5625Z"/>
<path d="M517.809 69.2377C519.981 69.2377 521.87 68.954 523.476 68.3866C525.082 67.7719 526.404 66.9444 527.443 65.9042C528.529 64.8639 529.332 63.6109 529.852 62.1451C530.418 60.6793 530.702 59.0716 530.702 57.3221C530.702 53.7286 529.616 50.8915 527.443 48.811C525.318 46.6833 522.107 45.6194 517.809 45.6194C513.511 45.6194 510.276 46.6833 508.104 48.811C505.979 50.8915 504.916 53.7286 504.916 57.3221C504.916 59.0244 505.176 60.6084 505.695 62.0742C506.262 63.54 507.065 64.8166 508.104 65.9042C509.19 66.9444 510.536 67.7719 512.142 68.3866C513.795 68.954 515.684 69.2377 517.809 69.2377ZM537.573 110.658C537.573 109.24 537.148 108.081 536.298 107.183C535.448 106.285 534.291 105.599 532.827 105.126C531.363 104.606 529.639 104.228 527.656 103.991C525.719 103.755 523.641 103.589 521.422 103.495C519.249 103.353 516.983 103.235 514.621 103.14C512.307 103.046 510.04 102.857 507.821 102.573C505.884 103.66 504.302 104.937 503.074 106.403C501.894 107.869 501.303 109.571 501.303 111.509C501.303 112.786 501.61 113.968 502.224 115.056C502.885 116.191 503.901 117.16 505.27 117.964C506.687 118.768 508.505 119.382 510.725 119.808C512.945 120.281 515.66 120.517 518.872 120.517C522.13 120.517 524.94 120.257 527.302 119.737C529.663 119.264 531.599 118.578 533.11 117.68C534.669 116.829 535.802 115.789 536.511 114.559C537.219 113.377 537.573 112.077 537.573 110.658ZM555 37.1083V43.6335C555 45.714 553.749 46.9906 551.245 47.4635L544.728 48.6692C545.72 51.1752 546.216 53.9177 546.216 56.8966C546.216 60.4902 545.484 63.7527 544.02 66.6844C542.603 69.5687 540.619 72.0274 538.069 74.0606C535.519 76.0939 532.496 77.6779 529.002 78.8127C525.554 79.9002 521.823 80.444 517.809 80.444C516.392 80.444 515.023 80.373 513.7 80.2312C512.378 80.0893 511.079 79.9002 509.804 79.6638C507.537 81.035 506.404 82.5717 506.404 84.274C506.404 85.7398 507.065 86.8273 508.387 87.5365C509.757 88.1985 511.551 88.6714 513.771 88.9551C515.991 89.2388 518.517 89.4279 521.351 89.5225C524.185 89.5698 527.089 89.7116 530.064 89.948C533.04 90.1844 535.944 90.61 538.778 91.2247C541.611 91.7921 544.138 92.7141 546.358 93.9908C548.577 95.2675 550.348 97.017 551.671 99.2393C553.04 101.414 553.725 104.228 553.725 107.679C553.725 110.895 552.922 114.016 551.316 117.042C549.758 120.068 547.467 122.763 544.445 125.127C541.47 127.491 537.786 129.383 533.394 130.801C529.049 132.267 524.09 133 518.517 133C513.039 133 508.269 132.456 504.208 131.369C500.146 130.328 496.769 128.91 494.078 127.113C491.386 125.364 489.378 123.33 488.056 121.014C486.734 118.697 486.073 116.285 486.073 113.779C486.073 110.375 487.088 107.538 489.119 105.268C491.197 102.951 494.03 101.107 497.62 99.7358C495.683 98.7428 494.148 97.4189 493.015 95.7639C491.881 94.109 491.315 91.9339 491.315 89.2388C491.315 88.1512 491.504 87.0401 491.881 85.9053C492.307 84.7232 492.897 83.5647 493.652 82.4299C494.455 81.2951 495.447 80.2312 496.628 79.2382C497.808 78.198 499.202 77.2759 500.807 76.4721C497.124 74.4862 494.219 71.8383 492.094 68.5284C490.016 65.2186 488.977 61.3413 488.977 56.8966C488.977 53.303 489.685 50.0641 491.102 47.1797C492.566 44.2481 494.573 41.7657 497.124 39.7325C499.721 37.652 502.767 36.068 506.262 34.9805C509.804 33.893 513.653 33.3492 517.809 33.3492C520.926 33.3492 523.854 33.6802 526.593 34.3422C529.332 34.9569 531.835 35.8789 534.102 37.1083H555Z"/>
</mask>
<path d="M40.3245 92.5014C43.8665 92.5014 46.8418 92.0758 49.2504 91.2247C51.6589 90.3736 53.5716 89.2388 54.9884 87.8202C56.4524 86.4017 57.4914 84.7468 58.1054 82.8554C58.7665 80.9641 59.0971 78.9545 59.0971 76.8267C59.0971 74.6044 58.7429 72.6185 58.0345 70.869C57.3261 69.0722 56.2163 67.5591 54.705 66.3297C53.1938 65.0531 51.2339 64.0837 48.8253 63.4218C46.464 62.7598 43.6068 62.4288 40.2537 62.4288H21.056V92.5014H40.3245ZM21.056 19.5896V49.2366H36.2158C42.7331 49.2366 47.6446 48.0545 50.9505 45.6903C54.3036 43.3261 55.9802 39.567 55.9802 34.4131C55.9802 29.07 54.4689 25.2637 51.4464 22.994C48.4239 20.7244 43.7012 19.5896 37.2784 19.5896H21.056ZM37.2784 4.83703C43.9846 4.83703 49.7226 5.47536 54.4925 6.75203C59.2624 8.02869 63.1586 9.84912 66.1811 12.2133C69.2509 14.5775 71.4941 17.4382 72.9109 20.7953C74.3277 24.1525 75.0362 27.9352 75.0362 32.1435C75.0362 34.555 74.682 36.8719 73.9736 39.0942C73.2652 41.2693 72.1553 43.3261 70.6441 45.2648C69.18 47.1561 67.291 48.882 64.9769 50.4423C62.71 52.0027 59.9944 53.3267 56.8302 54.4142C70.9038 57.5822 77.9406 65.1949 77.9406 77.2523C77.9406 81.6024 77.1141 85.6216 75.4612 89.3097C73.8083 92.9978 71.3997 96.1895 68.2355 98.8847C65.0713 101.533 61.1751 103.613 56.5469 105.126C51.9187 106.639 46.6293 107.396 40.6787 107.396H2V4.83703H37.2784Z" stroke="white" stroke-width="4" mask="url(#path-1-outside-1)"/>
<path d="M107.614 47.2507C109.881 42.9006 112.573 39.4961 115.69 37.0374C118.806 34.5313 122.49 33.2783 126.741 33.2783C130.094 33.2783 132.786 34.0112 134.816 35.477L133.683 48.5983C133.447 49.4494 133.093 50.0641 132.62 50.4423C132.195 50.7733 131.605 50.9388 130.849 50.9388C130.141 50.9388 129.078 50.8206 127.661 50.5842C126.292 50.3478 124.946 50.2296 123.624 50.2296C121.687 50.2296 119.964 50.5133 118.452 51.0807C116.941 51.6481 115.571 52.4755 114.344 53.5631C113.163 54.6033 112.1 55.88 111.156 57.3931C110.258 58.9062 109.408 60.632 108.605 62.5707V107.396H91.108V34.6259H101.38C103.174 34.6259 104.426 34.9569 105.134 35.6188C105.843 36.2335 106.315 37.3683 106.551 39.0233L107.614 47.2507Z" stroke="white" stroke-width="4" mask="url(#path-1-outside-1)"/>
<path d="M181.388 76.3303C176.335 76.5667 172.085 77.0159 168.637 77.6779C165.189 78.2925 162.427 79.0964 160.349 80.0893C158.271 81.0823 156.783 82.2408 155.886 83.5647C154.988 84.8887 154.54 86.3308 154.54 87.8912C154.54 90.9646 155.437 93.1633 157.232 94.4873C159.074 95.8112 161.459 96.4732 164.387 96.4732C167.976 96.4732 171.069 95.8349 173.667 94.5582C176.311 93.2342 178.885 91.2483 181.388 88.6004V76.3303ZM141.293 44.7683C149.652 37.1083 159.711 33.2783 171.471 33.2783C175.721 33.2783 179.523 33.9875 182.876 35.4061C186.229 36.7773 189.063 38.7159 191.377 41.222C193.691 43.6807 195.438 46.636 196.619 50.0877C197.847 53.5394 198.461 57.3221 198.461 61.4358V107.396H190.527C188.874 107.396 187.599 107.159 186.701 106.687C185.804 106.166 185.095 105.15 184.576 103.637L183.018 98.3882C181.176 100.043 179.381 101.509 177.634 102.786C175.886 104.015 174.068 105.055 172.179 105.906C170.29 106.757 168.259 107.396 166.087 107.821C163.962 108.294 161.6 108.531 159.003 108.531C155.933 108.531 153.099 108.129 150.502 107.325C147.904 106.474 145.661 105.221 143.772 103.566C141.883 101.911 140.419 99.854 139.38 97.3952C138.341 94.9365 137.822 92.0758 137.822 88.8132C137.822 86.9691 138.128 85.1487 138.742 83.3519C139.356 81.5078 140.348 79.7584 141.718 78.1034C143.135 76.4485 144.953 74.8881 147.172 73.4223C149.392 71.9565 152.108 70.6798 155.319 69.5923C158.578 68.5048 162.356 67.63 166.653 66.9681C170.951 66.2588 175.863 65.8332 181.388 65.6914V61.4358C181.388 56.5656 180.349 52.972 178.271 50.6551C176.193 48.2909 173.194 47.1088 169.275 47.1088C166.441 47.1088 164.08 47.4398 162.191 48.1018C160.349 48.7638 158.719 49.5203 157.303 50.3714C155.886 51.1752 154.587 51.9081 153.406 52.5701C152.273 53.2321 150.998 53.5631 149.581 53.5631C148.353 53.5631 147.314 53.2557 146.464 52.641C145.614 51.9791 144.929 51.2225 144.41 50.3714L141.293 44.7683Z" stroke="white" stroke-width="4" mask="url(#path-1-outside-1)"/>
<path d="M231.304 43.5625C232.768 42.0967 234.303 40.7491 235.908 39.5198C237.561 38.2431 239.285 37.1792 241.08 36.3281C242.922 35.4297 244.882 34.7441 246.96 34.2713C249.038 33.7511 251.304 33.4911 253.76 33.4911C257.727 33.4911 261.246 34.1767 264.315 35.5479C267.385 36.8719 269.935 38.7632 271.966 41.222C274.044 43.6335 275.603 46.5414 276.642 49.9459C277.728 53.303 278.271 57.0148 278.271 61.0812V107.396H260.773V61.0812C260.773 56.6365 259.758 53.2084 257.727 50.797C255.697 48.3382 252.603 47.1088 248.447 47.1088C245.425 47.1088 242.591 47.7944 239.946 49.1657C237.302 50.5369 234.799 52.4046 232.437 54.7688V107.396H214.94V34.6259H225.637C227.904 34.6259 229.391 35.6898 230.1 37.8175L231.304 43.5625Z" stroke="white" stroke-width="4" mask="url(#path-1-outside-1)"/>
<path d="M340.533 53.2084C338.549 50.797 336.377 49.0947 334.015 48.1018C331.701 47.1088 329.198 46.6123 326.506 46.6123C323.862 46.6123 321.477 47.1088 319.352 48.1018C317.226 49.0947 315.408 50.6078 313.897 52.641C312.386 54.627 311.229 57.1803 310.426 60.301C309.623 63.3745 309.221 67.0153 309.221 71.2236C309.221 75.4792 309.552 79.0964 310.213 82.0753C310.922 85.0069 311.913 87.4183 313.188 89.3097C314.464 91.1538 316.022 92.5014 317.864 93.3525C319.706 94.1563 321.76 94.5582 324.027 94.5582C327.663 94.5582 330.757 93.8017 333.307 92.2886C335.857 90.7755 338.266 88.6241 340.533 85.8343V53.2084ZM358.03 2V107.396H347.333C345.019 107.396 343.555 106.332 342.941 104.204L341.454 97.1825C338.526 100.54 335.149 103.258 331.323 105.339C327.545 107.419 323.13 108.46 318.076 108.46C314.109 108.46 310.473 107.632 307.167 105.977C303.861 104.322 301.004 101.934 298.595 98.8138C296.234 95.6457 294.392 91.7448 293.07 87.111C291.795 82.4772 291.157 77.1814 291.157 71.2236C291.157 65.8332 291.889 60.8212 293.353 56.1873C294.817 51.5535 296.919 47.5344 299.658 44.1299C302.397 40.7255 305.679 38.0776 309.505 36.1862C313.33 34.2476 317.628 33.2783 322.398 33.2783C326.459 33.2783 329.93 33.9166 332.811 35.1933C335.692 36.47 338.266 38.1958 340.533 40.3709V2H358.03Z" stroke="white" stroke-width="4" mask="url(#path-1-outside-1)"/>
<path d="M393.434 34.6259V107.396H375.865V34.6259H393.434ZM395.842 13.4191C395.842 14.9321 395.535 16.3507 394.921 17.6746C394.307 18.9986 393.481 20.157 392.442 21.15C391.45 22.1429 390.269 22.9468 388.9 23.5615C387.53 24.1289 386.066 24.4126 384.508 24.4126C382.997 24.4126 381.556 24.1289 380.187 23.5615C378.864 22.9468 377.707 22.1429 376.715 21.15C375.724 20.157 374.921 18.9986 374.307 17.6746C373.74 16.3507 373.457 14.9321 373.457 13.4191C373.457 11.8587 373.74 10.3929 374.307 9.02165C374.921 7.65043 375.724 6.46833 376.715 5.47537C377.707 4.4824 378.864 3.70222 380.187 3.13482C381.556 2.52012 382.997 2.21278 384.508 2.21278C386.066 2.21278 387.53 2.52012 388.9 3.13482C390.269 3.70222 391.45 4.4824 392.442 5.47537C393.481 6.46833 394.307 7.65043 394.921 9.02165C395.535 10.3929 395.842 11.8587 395.842 13.4191Z" stroke="white" stroke-width="4" mask="url(#path-1-outside-1)"/>
<path d="M427.636 43.5625C429.1 42.0967 430.635 40.7491 432.241 39.5198C433.894 38.2431 435.617 37.1792 437.412 36.3281C439.254 35.4297 441.214 34.7441 443.292 34.2713C445.37 33.7511 447.637 33.4911 450.092 33.4911C454.06 33.4911 457.578 34.1767 460.648 35.5479C463.717 36.8719 466.268 38.7632 468.298 41.222C470.376 43.6335 471.935 46.5414 472.974 49.9459C474.06 53.303 474.603 57.0148 474.603 61.0812V107.396H457.106V61.0812C457.106 56.6365 456.09 53.2084 454.059 50.797C452.029 48.3382 448.935 47.1088 444.779 47.1088C441.757 47.1088 438.923 47.7944 436.279 49.1657C433.634 50.5369 431.131 52.4046 428.77 54.7688V107.396H411.272V34.6259H421.969C424.236 34.6259 425.723 35.6898 426.432 37.8175L427.636 43.5625Z" stroke="white" stroke-width="4" mask="url(#path-1-outside-1)"/>
<path d="M517.809 69.2377C519.981 69.2377 521.87 68.954 523.476 68.3866C525.082 67.7719 526.404 66.9444 527.443 65.9042C528.529 64.8639 529.332 63.6109 529.852 62.1451C530.418 60.6793 530.702 59.0716 530.702 57.3221C530.702 53.7286 529.616 50.8915 527.443 48.811C525.318 46.6833 522.107 45.6194 517.809 45.6194C513.511 45.6194 510.276 46.6833 508.104 48.811C505.979 50.8915 504.916 53.7286 504.916 57.3221C504.916 59.0244 505.176 60.6084 505.695 62.0742C506.262 63.54 507.065 64.8166 508.104 65.9042C509.19 66.9444 510.536 67.7719 512.142 68.3866C513.795 68.954 515.684 69.2377 517.809 69.2377ZM537.573 110.658C537.573 109.24 537.148 108.081 536.298 107.183C535.448 106.285 534.291 105.599 532.827 105.126C531.363 104.606 529.639 104.228 527.656 103.991C525.719 103.755 523.641 103.589 521.422 103.495C519.249 103.353 516.983 103.235 514.621 103.14C512.307 103.046 510.04 102.857 507.821 102.573C505.884 103.66 504.302 104.937 503.074 106.403C501.894 107.869 501.303 109.571 501.303 111.509C501.303 112.786 501.61 113.968 502.224 115.056C502.885 116.191 503.901 117.16 505.27 117.964C506.687 118.768 508.505 119.382 510.725 119.808C512.945 120.281 515.66 120.517 518.872 120.517C522.13 120.517 524.94 120.257 527.302 119.737C529.663 119.264 531.599 118.578 533.11 117.68C534.669 116.829 535.802 115.789 536.511 114.559C537.219 113.377 537.573 112.077 537.573 110.658ZM555 37.1083V43.6335C555 45.714 553.749 46.9906 551.245 47.4635L544.728 48.6692C545.72 51.1752 546.216 53.9177 546.216 56.8966C546.216 60.4902 545.484 63.7527 544.02 66.6844C542.603 69.5687 540.619 72.0274 538.069 74.0606C535.519 76.0939 532.496 77.6779 529.002 78.8127C525.554 79.9002 521.823 80.444 517.809 80.444C516.392 80.444 515.023 80.373 513.7 80.2312C512.378 80.0893 511.079 79.9002 509.804 79.6638C507.537 81.035 506.404 82.5717 506.404 84.274C506.404 85.7398 507.065 86.8273 508.387 87.5365C509.757 88.1985 511.551 88.6714 513.771 88.9551C515.991 89.2388 518.517 89.4279 521.351 89.5225C524.185 89.5698 527.089 89.7116 530.064 89.948C533.04 90.1844 535.944 90.61 538.778 91.2247C541.611 91.7921 544.138 92.7141 546.358 93.9908C548.577 95.2675 550.348 97.017 551.671 99.2393C553.04 101.414 553.725 104.228 553.725 107.679C553.725 110.895 552.922 114.016 551.316 117.042C549.758 120.068 547.467 122.763 544.445 125.127C541.47 127.491 537.786 129.383 533.394 130.801C529.049 132.267 524.09 133 518.517 133C513.039 133 508.269 132.456 504.208 131.369C500.146 130.328 496.769 128.91 494.078 127.113C491.386 125.364 489.378 123.33 488.056 121.014C486.734 118.697 486.073 116.285 486.073 113.779C486.073 110.375 487.088 107.538 489.119 105.268C491.197 102.951 494.03 101.107 497.62 99.7358C495.683 98.7428 494.148 97.4189 493.015 95.7639C491.881 94.109 491.315 91.9339 491.315 89.2388C491.315 88.1512 491.504 87.0401 491.881 85.9053C492.307 84.7232 492.897 83.5647 493.652 82.4299C494.455 81.2951 495.447 80.2312 496.628 79.2382C497.808 78.198 499.202 77.2759 500.807 76.4721C497.124 74.4862 494.219 71.8383 492.094 68.5284C490.016 65.2186 488.977 61.3413 488.977 56.8966C488.977 53.303 489.685 50.0641 491.102 47.1797C492.566 44.2481 494.573 41.7657 497.124 39.7325C499.721 37.652 502.767 36.068 506.262 34.9805C509.804 33.893 513.653 33.3492 517.809 33.3492C520.926 33.3492 523.854 33.6802 526.593 34.3422C529.332 34.9569 531.835 35.8789 534.102 37.1083H555Z" stroke="white" stroke-width="4" mask="url(#path-1-outside-1)"/>
</svg>
