<svg width="585" height="113" viewBox="0 0 585 113" fill="none" xmlns="http://www.w3.org/2000/svg">
<mask id="path-1-outside-1" maskUnits="userSpaceOnUse" x="0" y="0" width="585" height="113" fill="black">
<rect fill="white" width="585" height="113"/>
<path d="M149.756 4.90279L117.893 109.839H100.648L78.2233 38.1398C77.6083 36.3981 77.0405 34.2694 76.5201 31.7537C76.2363 32.9632 75.9524 34.1001 75.6685 35.1644C75.3847 36.2288 75.0772 37.2206 74.746 38.1398L52.108 109.839H34.7925L3 4.90279H18.9672C20.6231 4.90279 21.9951 5.31402 23.0832 6.13649C24.2186 6.91056 24.9756 7.97492 25.3541 9.32956L42.8116 72.1025C43.1901 73.6507 43.5449 75.344 43.8761 77.1824C44.2545 78.9725 44.633 80.8593 45.0115 82.8429C45.39 80.8109 45.7921 78.8999 46.2179 77.1099C46.691 75.3198 47.1878 73.6507 47.7082 72.1025L67.8624 9.32956C68.2408 8.21682 68.9741 7.20084 70.0623 6.28163C71.1977 5.3624 72.5697 4.90279 74.1783 4.90279H79.7845C81.4404 4.90279 82.7887 5.31402 83.8296 6.13649C84.8704 6.95894 85.651 8.0233 86.1714 9.32956L106.255 72.1025C107.248 75.1021 108.147 78.5613 108.951 82.48C109.566 78.658 110.252 75.1988 111.009 72.1025L128.467 9.32956C128.751 8.12006 129.46 7.07989 130.596 6.20905C131.778 5.33821 133.174 4.90279 134.783 4.90279H149.756Z"/>
<path d="M197.904 64.0473C197.904 61.725 197.573 59.5479 196.911 57.516C196.296 55.4356 195.349 53.6214 194.072 52.0732C192.795 50.5251 191.162 49.3156 189.175 48.4447C187.236 47.5255 184.965 47.0659 182.363 47.0659C177.301 47.0659 173.303 48.5415 170.37 51.4927C167.484 54.4439 165.639 58.6287 164.834 64.0473H197.904ZM164.479 74.8602C164.763 78.6822 165.426 81.9962 166.467 84.8023C167.507 87.5599 168.879 89.858 170.583 91.6964C172.286 93.4865 174.296 94.8411 176.615 95.7603C178.98 96.6312 181.582 97.0666 184.421 97.0666C187.259 97.0666 189.696 96.7279 191.73 96.0506C193.812 95.3733 195.61 94.6234 197.124 93.8009C198.685 92.9785 200.033 92.2286 201.169 91.5513C202.351 90.8739 203.487 90.5353 204.575 90.5353C206.042 90.5353 207.13 91.0917 207.839 92.2044L212.878 98.7357C210.938 101.058 208.762 103.017 206.349 104.614C203.936 106.162 201.405 107.42 198.756 108.387C196.154 109.307 193.481 109.96 190.737 110.347C188.04 110.734 185.414 110.927 182.86 110.927C177.797 110.927 173.09 110.081 168.737 108.387C164.385 106.646 160.6 104.106 157.383 100.768C154.166 97.381 151.635 93.2204 149.79 88.2856C147.945 83.3025 147.022 77.5453 147.022 71.014C147.022 65.9341 147.826 61.1687 149.435 56.7177C151.043 52.2184 153.338 48.3238 156.318 45.034C159.346 41.6957 163.013 39.059 167.318 37.1238C171.671 35.1886 176.567 34.221 182.008 34.221C186.597 34.221 190.831 34.9709 194.711 36.4707C198.59 37.9705 201.926 40.1718 204.717 43.0746C207.508 45.929 209.684 49.4607 211.246 53.6698C212.854 57.8305 213.659 62.5959 213.659 67.966C213.659 70.6753 213.375 72.5138 212.807 73.4814C212.239 74.4006 211.151 74.8602 209.543 74.8602H164.479Z"/>
<path d="M244.341 90.5353C246.328 93.0027 248.481 94.7443 250.799 95.7603C253.164 96.7763 255.648 97.2843 258.25 97.2843C260.947 97.2843 263.36 96.8005 265.489 95.8329C267.665 94.8169 269.51 93.2688 271.024 91.1884C272.538 89.0597 273.697 86.3746 274.501 83.1332C275.306 79.8433 275.708 75.9245 275.708 71.3768C275.708 63.2006 274.383 57.2983 271.734 53.6698C269.084 49.9929 265.276 48.1545 260.308 48.1545C256.949 48.1545 254.016 48.9527 251.509 50.5493C249.001 52.0974 246.612 54.2987 244.341 57.1531V90.5353ZM244.341 44.526C247.274 41.3813 250.515 38.8897 254.063 37.0513C257.659 35.1644 261.751 34.221 266.34 34.221C270.551 34.221 274.336 35.0677 277.695 36.761C281.101 38.4543 283.987 40.8975 286.353 44.0906C288.765 47.2352 290.61 51.0573 291.888 55.5566C293.165 60.0559 293.804 65.1116 293.804 70.7237C293.804 76.7712 293.071 82.2623 291.604 87.1971C290.137 92.1318 288.032 96.3651 285.288 99.8968C282.591 103.38 279.327 106.089 275.495 108.025C271.663 109.96 267.405 110.927 262.721 110.927C260.45 110.927 258.392 110.686 256.547 110.202C254.702 109.766 252.999 109.137 251.438 108.315C249.876 107.492 248.433 106.501 247.109 105.34C245.831 104.13 244.601 102.8 243.418 101.348L242.638 106.356C242.354 107.613 241.857 108.508 241.148 109.041C240.485 109.573 239.563 109.839 238.38 109.839H226.813V2H244.341V44.526Z"/>
<path d="M351.766 49.8961C351.293 50.6702 350.796 51.2266 350.276 51.5652C349.755 51.8555 349.093 52.0007 348.289 52.0007C347.437 52.0007 346.515 51.7588 345.521 51.275C344.575 50.7912 343.463 50.259 342.186 49.6784C340.908 49.0495 339.442 48.4931 337.786 48.0093C336.177 47.5255 334.261 47.2836 332.038 47.2836C328.584 47.2836 325.864 48.0335 323.877 49.5333C321.937 51.0331 320.967 52.9925 320.967 55.4114C320.967 57.008 321.464 58.3626 322.457 59.4754C323.498 60.5397 324.846 61.4831 326.502 62.3056C328.205 63.1281 330.122 63.8779 332.251 64.5553C334.379 65.1842 336.532 65.8857 338.708 66.6598C340.932 67.4339 343.108 68.3289 345.237 69.3449C347.366 70.3125 349.259 71.5703 350.914 73.1185C352.618 74.6183 353.966 76.4325 354.959 78.5612C356 80.69 356.521 83.2541 356.521 86.2537C356.521 89.8338 355.882 93.1478 354.605 96.1957C353.375 99.1953 351.529 101.808 349.069 104.033C346.609 106.21 343.558 107.928 339.915 109.186C336.319 110.395 332.156 111 327.425 111C324.917 111 322.457 110.758 320.044 110.274C317.679 109.839 315.384 109.21 313.161 108.387C310.985 107.565 308.95 106.597 307.058 105.485C305.213 104.372 303.581 103.162 302.161 101.856L306.206 95.0346C306.727 94.2122 307.342 93.5832 308.051 93.1478C308.761 92.7124 309.66 92.4947 310.748 92.4947C311.836 92.4947 312.853 92.8091 313.8 93.4381C314.793 94.067 315.928 94.7443 317.206 95.47C318.483 96.1957 319.974 96.8731 321.677 97.502C323.427 98.1309 325.627 98.4454 328.276 98.4454C330.358 98.4454 332.132 98.2035 333.599 97.7197C335.113 97.1875 336.343 96.5102 337.289 95.6877C338.283 94.8653 338.992 93.9219 339.418 92.8575C339.891 91.7448 340.128 90.6079 340.128 89.4467C340.128 87.7051 339.607 86.2779 338.566 85.1651C337.573 84.0524 336.225 83.0848 334.521 82.2623C332.866 81.4399 330.949 80.7142 328.773 80.0852C326.644 79.4079 324.444 78.6822 322.173 77.9081C319.95 77.134 317.75 76.239 315.574 75.223C313.445 74.1587 311.529 72.8282 309.825 71.2317C308.17 69.6352 306.821 67.6758 305.78 65.3535C304.787 63.0313 304.29 60.2253 304.29 56.9354C304.29 53.8875 304.882 50.9847 306.064 48.227C307.247 45.4694 308.974 43.0746 311.245 41.0426C313.563 38.9623 316.425 37.3174 319.832 36.1079C323.285 34.85 327.259 34.221 331.754 34.221C336.769 34.221 341.334 35.0677 345.45 36.761C349.566 38.4543 352.996 40.6798 355.74 43.4374L351.766 49.8961Z"/>
<path d="M387.881 35.3822V109.839H370.281V35.3822H387.881ZM390.294 13.6838C390.294 15.2319 389.986 16.6833 389.371 18.0379C388.756 19.3926 387.928 20.5779 386.887 21.5939C385.894 22.6099 384.711 23.4323 383.339 24.0613C381.967 24.6418 380.5 24.9321 378.939 24.9321C377.425 24.9321 375.982 24.6418 374.61 24.0613C373.286 23.4323 372.126 22.6099 371.133 21.5939C370.139 20.5779 369.335 19.3926 368.72 18.0379C368.152 16.6833 367.868 15.2319 367.868 13.6838C367.868 12.0872 368.152 10.5874 368.72 9.18442C369.335 7.7814 370.139 6.57191 371.133 5.55593C372.126 4.53995 373.286 3.74168 374.61 3.16112C375.982 2.53218 377.425 2.21771 378.939 2.21771C380.5 2.21771 381.967 2.53218 383.339 3.16112C384.711 3.74168 385.894 4.53995 386.887 5.55593C387.928 6.57191 388.756 7.7814 389.371 9.18442C389.986 10.5874 390.294 12.0872 390.294 13.6838Z"/>
<path d="M430.021 111C423.681 111 418.808 109.186 415.402 105.557C412.043 101.88 410.363 96.8247 410.363 90.3902V48.8076H402.912C401.966 48.8076 401.162 48.4931 400.499 47.8642C399.837 47.2352 399.506 46.2918 399.506 45.034V37.9221L411.215 35.9627L414.905 15.6431C415.142 14.6755 415.591 13.9256 416.254 13.3935C416.916 12.8613 417.767 12.5952 418.808 12.5952H427.892V36.0353H447.336V48.8076H427.892V89.1565C427.892 91.4787 428.436 93.2929 429.524 94.5992C430.66 95.9055 432.197 96.5586 434.137 96.5586C435.225 96.5586 436.124 96.4376 436.834 96.1957C437.59 95.9055 438.229 95.6152 438.75 95.3249C439.317 95.0346 439.814 94.7685 440.24 94.5266C440.666 94.2364 441.091 94.0912 441.517 94.0912C442.038 94.0912 442.463 94.2364 442.795 94.5266C443.126 94.7685 443.481 95.1556 443.859 95.6877L449.11 104.396C446.556 106.573 443.623 108.218 440.311 109.331C436.999 110.444 433.569 111 430.021 111Z"/>
<path d="M504.913 64.0473C504.913 61.725 504.581 59.5479 503.919 57.516C503.304 55.4356 502.358 53.6214 501.08 52.0732C499.803 50.5251 498.171 49.3156 496.184 48.4447C494.244 47.5255 491.973 47.0659 489.371 47.0659C484.309 47.0659 480.311 48.5415 477.378 51.4927C474.492 54.4439 472.647 58.6287 471.843 64.0473H504.913ZM471.488 74.8602C471.772 78.6822 472.434 81.9962 473.475 84.8023C474.516 87.5599 475.888 89.858 477.591 91.6964C479.294 93.4865 481.305 94.8411 483.623 95.7603C485.988 96.6312 488.591 97.0666 491.429 97.0666C494.268 97.0666 496.704 96.7279 498.739 96.0506C500.82 95.3733 502.618 94.6234 504.132 93.8009C505.693 92.9785 507.042 92.2286 508.177 91.5513C509.36 90.8739 510.495 90.5353 511.583 90.5353C513.05 90.5353 514.138 91.0917 514.848 92.2044L519.886 98.7357C517.947 101.058 515.77 103.017 513.357 104.614C510.945 106.162 508.414 107.42 505.764 108.387C503.162 109.307 500.489 109.96 497.745 110.347C495.048 110.734 492.423 110.927 489.868 110.927C484.806 110.927 480.098 110.081 475.746 108.387C471.393 106.646 467.608 104.106 464.391 100.768C461.174 97.381 458.643 93.2204 456.798 88.2856C454.953 83.3025 454.03 77.5453 454.03 71.014C454.03 65.9341 454.835 61.1687 456.443 56.7177C458.052 52.2184 460.346 48.3238 463.327 45.034C466.355 41.6957 470.021 39.059 474.326 37.1238C478.679 35.1886 483.576 34.221 489.016 34.221C493.605 34.221 497.84 34.9709 501.719 36.4707C505.599 37.9705 508.934 40.1718 511.725 43.0746C514.517 45.929 516.693 49.4607 518.254 53.6698C519.863 57.8305 520.667 62.5959 520.667 67.966C520.667 70.6753 520.383 72.5138 519.815 73.4814C519.248 74.4006 518.159 74.8602 516.551 74.8602H471.488Z"/>
<path d="M578.245 49.8961C577.772 50.6702 577.275 51.2266 576.755 51.5652C576.235 51.8555 575.572 52.0007 574.768 52.0007C573.916 52.0007 572.994 51.7588 572 51.275C571.054 50.7912 569.942 50.259 568.665 49.6784C567.388 49.0495 565.921 48.4931 564.265 48.0093C562.657 47.5255 560.741 47.2836 558.517 47.2836C555.063 47.2836 552.343 48.0335 550.356 49.5333C548.416 51.0331 547.446 52.9925 547.446 55.4114C547.446 57.008 547.943 58.3626 548.937 59.4754C549.977 60.5397 551.326 61.4831 552.982 62.3056C554.685 63.1281 556.601 63.8779 558.73 64.5553C560.859 65.1842 563.011 65.8857 565.188 66.6598C567.411 67.4339 569.588 68.3289 571.717 69.3449C573.845 70.3125 575.738 71.5703 577.394 73.1185C579.097 74.6183 580.445 76.4325 581.439 78.5612C582.48 80.69 583 83.2541 583 86.2537C583 89.8338 582.361 93.1478 581.084 96.1957C579.854 99.1953 578.009 101.808 575.549 104.033C573.089 106.21 570.037 107.928 566.394 109.186C562.799 110.395 558.635 111 553.904 111C551.397 111 548.937 110.758 546.524 110.274C544.158 109.839 541.864 109.21 539.64 108.387C537.464 107.565 535.43 106.597 533.537 105.485C531.692 104.372 530.06 103.162 528.64 101.856L532.686 95.0346C533.206 94.2122 533.821 93.5832 534.531 93.1478C535.24 92.7124 536.139 92.4947 537.227 92.4947C538.315 92.4947 539.333 92.8091 540.279 93.4381C541.272 94.067 542.408 94.7443 543.685 95.47C544.963 96.1957 546.453 96.8731 548.156 97.502C549.906 98.1309 552.106 98.4454 554.756 98.4454C556.837 98.4454 558.612 98.2035 560.078 97.7197C561.592 97.1875 562.822 96.5102 563.768 95.6877C564.762 94.8653 565.472 93.9219 565.897 92.8575C566.37 91.7448 566.607 90.6079 566.607 89.4467C566.607 87.7051 566.087 86.2779 565.046 85.1651C564.052 84.0524 562.704 83.0848 561.001 82.2623C559.345 81.4399 557.429 80.7142 555.253 80.0852C553.124 79.4079 550.924 78.6822 548.653 77.9081C546.429 77.134 544.229 76.239 542.053 75.223C539.924 74.1587 538.008 72.8282 536.305 71.2317C534.649 69.6352 533.301 67.6758 532.26 65.3535C531.266 63.0313 530.769 60.2253 530.769 56.9354C530.769 53.8875 531.361 50.9847 532.544 48.227C533.726 45.4694 535.453 43.0746 537.724 41.0426C540.042 38.9623 542.905 37.3174 546.311 36.1079C549.765 34.85 553.739 34.221 558.233 34.221C563.248 34.221 567.813 35.0677 571.929 36.761C576.045 38.4543 579.475 40.6798 582.219 43.4374L578.245 49.8961Z"/>
</mask>
<path d="M149.756 4.90279L117.893 109.839H100.648L78.2233 38.1398C77.6083 36.3981 77.0405 34.2694 76.5201 31.7537C76.2363 32.9632 75.9524 34.1001 75.6685 35.1644C75.3847 36.2288 75.0772 37.2206 74.746 38.1398L52.108 109.839H34.7925L3 4.90279H18.9672C20.6231 4.90279 21.9951 5.31402 23.0832 6.13649C24.2186 6.91056 24.9756 7.97492 25.3541 9.32956L42.8116 72.1025C43.1901 73.6507 43.5449 75.344 43.8761 77.1824C44.2545 78.9725 44.633 80.8593 45.0115 82.8429C45.39 80.8109 45.7921 78.8999 46.2179 77.1099C46.691 75.3198 47.1878 73.6507 47.7082 72.1025L67.8624 9.32956C68.2408 8.21682 68.9741 7.20084 70.0623 6.28163C71.1977 5.3624 72.5697 4.90279 74.1783 4.90279H79.7845C81.4404 4.90279 82.7887 5.31402 83.8296 6.13649C84.8704 6.95894 85.651 8.0233 86.1714 9.32956L106.255 72.1025C107.248 75.1021 108.147 78.5613 108.951 82.48C109.566 78.658 110.252 75.1988 111.009 72.1025L128.467 9.32956C128.751 8.12006 129.46 7.07989 130.596 6.20905C131.778 5.33821 133.174 4.90279 134.783 4.90279H149.756Z" stroke="white" stroke-width="4" mask="url(#path-1-outside-1)"/>
<path d="M197.904 64.0473C197.904 61.725 197.573 59.5479 196.911 57.516C196.296 55.4356 195.349 53.6214 194.072 52.0732C192.795 50.5251 191.162 49.3156 189.175 48.4447C187.236 47.5255 184.965 47.0659 182.363 47.0659C177.301 47.0659 173.303 48.5415 170.37 51.4927C167.484 54.4439 165.639 58.6287 164.834 64.0473H197.904ZM164.479 74.8602C164.763 78.6822 165.426 81.9962 166.467 84.8023C167.507 87.5599 168.879 89.858 170.583 91.6964C172.286 93.4865 174.296 94.8411 176.615 95.7603C178.98 96.6312 181.582 97.0666 184.421 97.0666C187.259 97.0666 189.696 96.7279 191.73 96.0506C193.812 95.3733 195.61 94.6234 197.124 93.8009C198.685 92.9785 200.033 92.2286 201.169 91.5513C202.351 90.8739 203.487 90.5353 204.575 90.5353C206.042 90.5353 207.13 91.0917 207.839 92.2044L212.878 98.7357C210.938 101.058 208.762 103.017 206.349 104.614C203.936 106.162 201.405 107.42 198.756 108.387C196.154 109.307 193.481 109.96 190.737 110.347C188.04 110.734 185.414 110.927 182.86 110.927C177.797 110.927 173.09 110.081 168.737 108.387C164.385 106.646 160.6 104.106 157.383 100.768C154.166 97.381 151.635 93.2204 149.79 88.2856C147.945 83.3025 147.022 77.5453 147.022 71.014C147.022 65.9341 147.826 61.1687 149.435 56.7177C151.043 52.2184 153.338 48.3238 156.318 45.034C159.346 41.6957 163.013 39.059 167.318 37.1238C171.671 35.1886 176.567 34.221 182.008 34.221C186.597 34.221 190.831 34.9709 194.711 36.4707C198.59 37.9705 201.926 40.1718 204.717 43.0746C207.508 45.929 209.684 49.4607 211.246 53.6698C212.854 57.8305 213.659 62.5959 213.659 67.966C213.659 70.6753 213.375 72.5138 212.807 73.4814C212.239 74.4006 211.151 74.8602 209.543 74.8602H164.479Z" stroke="white" stroke-width="4" mask="url(#path-1-outside-1)"/>
<path d="M244.341 90.5353C246.328 93.0027 248.481 94.7443 250.799 95.7603C253.164 96.7763 255.648 97.2843 258.25 97.2843C260.947 97.2843 263.36 96.8005 265.489 95.8329C267.665 94.8169 269.51 93.2688 271.024 91.1884C272.538 89.0597 273.697 86.3746 274.501 83.1332C275.306 79.8433 275.708 75.9245 275.708 71.3768C275.708 63.2006 274.383 57.2983 271.734 53.6698C269.084 49.9929 265.276 48.1545 260.308 48.1545C256.949 48.1545 254.016 48.9527 251.509 50.5493C249.001 52.0974 246.612 54.2987 244.341 57.1531V90.5353ZM244.341 44.526C247.274 41.3813 250.515 38.8897 254.063 37.0513C257.659 35.1644 261.751 34.221 266.34 34.221C270.551 34.221 274.336 35.0677 277.695 36.761C281.101 38.4543 283.987 40.8975 286.353 44.0906C288.765 47.2352 290.61 51.0573 291.888 55.5566C293.165 60.0559 293.804 65.1116 293.804 70.7237C293.804 76.7712 293.071 82.2623 291.604 87.1971C290.137 92.1318 288.032 96.3651 285.288 99.8968C282.591 103.38 279.327 106.089 275.495 108.025C271.663 109.96 267.405 110.927 262.721 110.927C260.45 110.927 258.392 110.686 256.547 110.202C254.702 109.766 252.999 109.137 251.438 108.315C249.876 107.492 248.433 106.501 247.109 105.34C245.831 104.13 244.601 102.8 243.418 101.348L242.638 106.356C242.354 107.613 241.857 108.508 241.148 109.041C240.485 109.573 239.563 109.839 238.38 109.839H226.813V2H244.341V44.526Z" stroke="white" stroke-width="4" mask="url(#path-1-outside-1)"/>
<path d="M351.766 49.8961C351.293 50.6702 350.796 51.2266 350.276 51.5652C349.755 51.8555 349.093 52.0007 348.289 52.0007C347.437 52.0007 346.515 51.7588 345.521 51.275C344.575 50.7912 343.463 50.259 342.186 49.6784C340.908 49.0495 339.442 48.4931 337.786 48.0093C336.177 47.5255 334.261 47.2836 332.038 47.2836C328.584 47.2836 325.864 48.0335 323.877 49.5333C321.937 51.0331 320.967 52.9925 320.967 55.4114C320.967 57.008 321.464 58.3626 322.457 59.4754C323.498 60.5397 324.846 61.4831 326.502 62.3056C328.205 63.1281 330.122 63.8779 332.251 64.5553C334.379 65.1842 336.532 65.8857 338.708 66.6598C340.932 67.4339 343.108 68.3289 345.237 69.3449C347.366 70.3125 349.259 71.5703 350.914 73.1185C352.618 74.6183 353.966 76.4325 354.959 78.5612C356 80.69 356.521 83.2541 356.521 86.2537C356.521 89.8338 355.882 93.1478 354.605 96.1957C353.375 99.1953 351.529 101.808 349.069 104.033C346.609 106.21 343.558 107.928 339.915 109.186C336.319 110.395 332.156 111 327.425 111C324.917 111 322.457 110.758 320.044 110.274C317.679 109.839 315.384 109.21 313.161 108.387C310.985 107.565 308.95 106.597 307.058 105.485C305.213 104.372 303.581 103.162 302.161 101.856L306.206 95.0346C306.727 94.2122 307.342 93.5832 308.051 93.1478C308.761 92.7124 309.66 92.4947 310.748 92.4947C311.836 92.4947 312.853 92.8091 313.8 93.4381C314.793 94.067 315.928 94.7443 317.206 95.47C318.483 96.1957 319.974 96.8731 321.677 97.502C323.427 98.1309 325.627 98.4454 328.276 98.4454C330.358 98.4454 332.132 98.2035 333.599 97.7197C335.113 97.1875 336.343 96.5102 337.289 95.6877C338.283 94.8653 338.992 93.9219 339.418 92.8575C339.891 91.7448 340.128 90.6079 340.128 89.4467C340.128 87.7051 339.607 86.2779 338.566 85.1651C337.573 84.0524 336.225 83.0848 334.521 82.2623C332.866 81.4399 330.949 80.7142 328.773 80.0852C326.644 79.4079 324.444 78.6822 322.173 77.9081C319.95 77.134 317.75 76.239 315.574 75.223C313.445 74.1587 311.529 72.8282 309.825 71.2317C308.17 69.6352 306.821 67.6758 305.78 65.3535C304.787 63.0313 304.29 60.2253 304.29 56.9354C304.29 53.8875 304.882 50.9847 306.064 48.227C307.247 45.4694 308.974 43.0746 311.245 41.0426C313.563 38.9623 316.425 37.3174 319.832 36.1079C323.285 34.85 327.259 34.221 331.754 34.221C336.769 34.221 341.334 35.0677 345.45 36.761C349.566 38.4543 352.996 40.6798 355.74 43.4374L351.766 49.8961Z" stroke="white" stroke-width="4" mask="url(#path-1-outside-1)"/>
<path d="M387.881 35.3822V109.839H370.281V35.3822H387.881ZM390.294 13.6838C390.294 15.2319 389.986 16.6833 389.371 18.0379C388.756 19.3926 387.928 20.5779 386.887 21.5939C385.894 22.6099 384.711 23.4323 383.339 24.0613C381.967 24.6418 380.5 24.9321 378.939 24.9321C377.425 24.9321 375.982 24.6418 374.61 24.0613C373.286 23.4323 372.126 22.6099 371.133 21.5939C370.139 20.5779 369.335 19.3926 368.72 18.0379C368.152 16.6833 367.868 15.2319 367.868 13.6838C367.868 12.0872 368.152 10.5874 368.72 9.18442C369.335 7.7814 370.139 6.57191 371.133 5.55593C372.126 4.53995 373.286 3.74168 374.61 3.16112C375.982 2.53218 377.425 2.21771 378.939 2.21771C380.5 2.21771 381.967 2.53218 383.339 3.16112C384.711 3.74168 385.894 4.53995 386.887 5.55593C387.928 6.57191 388.756 7.7814 389.371 9.18442C389.986 10.5874 390.294 12.0872 390.294 13.6838Z" stroke="white" stroke-width="4" mask="url(#path-1-outside-1)"/>
<path d="M430.021 111C423.681 111 418.808 109.186 415.402 105.557C412.043 101.88 410.363 96.8247 410.363 90.3902V48.8076H402.912C401.966 48.8076 401.162 48.4931 400.499 47.8642C399.837 47.2352 399.506 46.2918 399.506 45.034V37.9221L411.215 35.9627L414.905 15.6431C415.142 14.6755 415.591 13.9256 416.254 13.3935C416.916 12.8613 417.767 12.5952 418.808 12.5952H427.892V36.0353H447.336V48.8076H427.892V89.1565C427.892 91.4787 428.436 93.2929 429.524 94.5992C430.66 95.9055 432.197 96.5586 434.137 96.5586C435.225 96.5586 436.124 96.4376 436.834 96.1957C437.59 95.9055 438.229 95.6152 438.75 95.3249C439.317 95.0346 439.814 94.7685 440.24 94.5266C440.666 94.2364 441.091 94.0912 441.517 94.0912C442.038 94.0912 442.463 94.2364 442.795 94.5266C443.126 94.7685 443.481 95.1556 443.859 95.6877L449.11 104.396C446.556 106.573 443.623 108.218 440.311 109.331C436.999 110.444 433.569 111 430.021 111Z" stroke="white" stroke-width="4" mask="url(#path-1-outside-1)"/>
<path d="M504.913 64.0473C504.913 61.725 504.581 59.5479 503.919 57.516C503.304 55.4356 502.358 53.6214 501.08 52.0732C499.803 50.5251 498.171 49.3156 496.184 48.4447C494.244 47.5255 491.973 47.0659 489.371 47.0659C484.309 47.0659 480.311 48.5415 477.378 51.4927C474.492 54.4439 472.647 58.6287 471.843 64.0473H504.913ZM471.488 74.8602C471.772 78.6822 472.434 81.9962 473.475 84.8023C474.516 87.5599 475.888 89.858 477.591 91.6964C479.294 93.4865 481.305 94.8411 483.623 95.7603C485.988 96.6312 488.591 97.0666 491.429 97.0666C494.268 97.0666 496.704 96.7279 498.739 96.0506C500.82 95.3733 502.618 94.6234 504.132 93.8009C505.693 92.9785 507.042 92.2286 508.177 91.5513C509.36 90.8739 510.495 90.5353 511.583 90.5353C513.05 90.5353 514.138 91.0917 514.848 92.2044L519.886 98.7357C517.947 101.058 515.77 103.017 513.357 104.614C510.945 106.162 508.414 107.42 505.764 108.387C503.162 109.307 500.489 109.96 497.745 110.347C495.048 110.734 492.423 110.927 489.868 110.927C484.806 110.927 480.098 110.081 475.746 108.387C471.393 106.646 467.608 104.106 464.391 100.768C461.174 97.381 458.643 93.2204 456.798 88.2856C454.953 83.3025 454.03 77.5453 454.03 71.014C454.03 65.9341 454.835 61.1687 456.443 56.7177C458.052 52.2184 460.346 48.3238 463.327 45.034C466.355 41.6957 470.021 39.059 474.326 37.1238C478.679 35.1886 483.576 34.221 489.016 34.221C493.605 34.221 497.84 34.9709 501.719 36.4707C505.599 37.9705 508.934 40.1718 511.725 43.0746C514.517 45.929 516.693 49.4607 518.254 53.6698C519.863 57.8305 520.667 62.5959 520.667 67.966C520.667 70.6753 520.383 72.5138 519.815 73.4814C519.248 74.4006 518.159 74.8602 516.551 74.8602H471.488Z" stroke="white" stroke-width="4" mask="url(#path-1-outside-1)"/>
<path d="M578.245 49.8961C577.772 50.6702 577.275 51.2266 576.755 51.5652C576.235 51.8555 575.572 52.0007 574.768 52.0007C573.916 52.0007 572.994 51.7588 572 51.275C571.054 50.7912 569.942 50.259 568.665 49.6784C567.388 49.0495 565.921 48.4931 564.265 48.0093C562.657 47.5255 560.741 47.2836 558.517 47.2836C555.063 47.2836 552.343 48.0335 550.356 49.5333C548.416 51.0331 547.446 52.9925 547.446 55.4114C547.446 57.008 547.943 58.3626 548.937 59.4754C549.977 60.5397 551.326 61.4831 552.982 62.3056C554.685 63.1281 556.601 63.8779 558.73 64.5553C560.859 65.1842 563.011 65.8857 565.188 66.6598C567.411 67.4339 569.588 68.3289 571.717 69.3449C573.845 70.3125 575.738 71.5703 577.394 73.1185C579.097 74.6183 580.445 76.4325 581.439 78.5612C582.48 80.69 583 83.2541 583 86.2537C583 89.8338 582.361 93.1478 581.084 96.1957C579.854 99.1953 578.009 101.808 575.549 104.033C573.089 106.21 570.037 107.928 566.394 109.186C562.799 110.395 558.635 111 553.904 111C551.397 111 548.937 110.758 546.524 110.274C544.158 109.839 541.864 109.21 539.64 108.387C537.464 107.565 535.43 106.597 533.537 105.485C531.692 104.372 530.06 103.162 528.64 101.856L532.686 95.0346C533.206 94.2122 533.821 93.5832 534.531 93.1478C535.24 92.7124 536.139 92.4947 537.227 92.4947C538.315 92.4947 539.333 92.8091 540.279 93.4381C541.272 94.067 542.408 94.7443 543.685 95.47C544.963 96.1957 546.453 96.8731 548.156 97.502C549.906 98.1309 552.106 98.4454 554.756 98.4454C556.837 98.4454 558.612 98.2035 560.078 97.7197C561.592 97.1875 562.822 96.5102 563.768 95.6877C564.762 94.8653 565.472 93.9219 565.897 92.8575C566.37 91.7448 566.607 90.6079 566.607 89.4467C566.607 87.7051 566.087 86.2779 565.046 85.1651C564.052 84.0524 562.704 83.0848 561.001 82.2623C559.345 81.4399 557.429 80.7142 555.253 80.0852C553.124 79.4079 550.924 78.6822 548.653 77.9081C546.429 77.134 544.229 76.239 542.053 75.223C539.924 74.1587 538.008 72.8282 536.305 71.2317C534.649 69.6352 533.301 67.6758 532.26 65.3535C531.266 63.0313 530.769 60.2253 530.769 56.9354C530.769 53.8875 531.361 50.9847 532.544 48.227C533.726 45.4694 535.453 43.0746 537.724 41.0426C540.042 38.9623 542.905 37.3174 546.311 36.1079C549.765 34.85 553.739 34.221 558.233 34.221C563.248 34.221 567.813 35.0677 571.929 36.761C576.045 38.4543 579.475 40.6798 582.219 43.4374L578.245 49.8961Z" stroke="white" stroke-width="4" mask="url(#path-1-outside-1)"/>
</svg>
