<svg width="318" height="129" viewBox="0 0 318 129" fill="none" xmlns="http://www.w3.org/2000/svg">
<mask id="path-1-outside-1" maskUnits="userSpaceOnUse" x="0" y="0" width="318" height="129" fill="black">
<rect fill="white" width="318" height="129"/>
<path d="M68.3049 65.1668L56.0254 31.4076C55.4207 29.9103 54.7927 28.1323 54.1416 26.0736C53.4904 24.0148 52.8392 21.7922 52.188 19.4059C51.5833 21.7922 50.9554 24.0382 50.3042 26.1437C49.653 28.2025 49.0251 30.0039 48.4204 31.548L36.2106 65.1668H68.3049ZM101.446 103.488H86.9336C85.3056 103.488 83.9799 103.09 82.9567 102.295C81.9334 101.453 81.1659 100.423 80.6542 99.2066L73.1191 78.502H31.3267L23.7915 99.2066C23.4194 100.283 22.6985 101.265 21.6286 102.154C20.5588 103.043 19.2332 103.488 17.6517 103.488H3L42.6992 2H61.8163L101.446 103.488Z"/>
<path d="M126.264 84.8186C128.218 87.2049 130.334 88.8894 132.613 89.872C134.939 90.8546 137.451 91.3459 140.149 91.3459C142.753 91.3459 145.102 90.8546 147.195 89.872C149.288 88.8894 151.056 87.3921 152.498 85.3801C153.986 83.3681 155.126 80.8415 155.917 77.8001C156.707 74.712 157.103 71.0857 157.103 66.9214C157.103 62.7103 156.754 59.1542 156.056 56.2532C155.405 53.3054 154.451 50.9191 153.196 49.0943C151.94 47.2695 150.405 45.936 148.591 45.0938C146.823 44.2515 144.8 43.8304 142.521 43.8304C138.939 43.8304 135.893 44.6025 133.381 46.1465C130.869 47.6438 128.497 49.7728 126.264 52.5334V84.8186ZM125.357 41.3038C128.288 37.9817 131.613 35.2912 135.334 33.2325C139.056 31.1737 143.428 30.1443 148.451 30.1443C152.358 30.1443 155.917 30.9631 159.126 32.6008C162.382 34.2384 165.173 36.6247 167.499 39.7597C169.871 42.8478 171.685 46.6846 172.941 51.2701C174.243 55.8087 174.894 61.0258 174.894 66.9214C174.894 72.3023 174.173 77.2854 172.731 81.8709C171.289 86.4563 169.22 90.4335 166.522 93.8024C163.87 97.1712 160.638 99.8149 156.824 101.733C153.056 103.605 148.823 104.541 144.125 104.541C140.125 104.541 136.707 103.932 133.869 102.716C131.032 101.453 128.497 99.7213 126.264 97.5222V127H109.031V31.4778H119.566C121.799 31.4778 123.264 32.5306 123.962 34.6362L125.357 41.3038Z"/>
<path d="M205.573 84.8186C207.527 87.2049 209.643 88.8894 211.923 89.872C214.248 90.8546 216.76 91.3459 219.458 91.3459C222.062 91.3459 224.411 90.8546 226.504 89.872C228.598 88.8894 230.365 87.3921 231.807 85.3801C233.295 83.3681 234.435 80.8415 235.226 77.8001C236.016 74.712 236.412 71.0857 236.412 66.9214C236.412 62.7103 236.063 59.1542 235.365 56.2532C234.714 53.3054 233.761 50.9191 232.505 49.0943C231.249 47.2695 229.714 45.936 227.9 45.0938C226.132 44.2515 224.109 43.8304 221.83 43.8304C218.248 43.8304 215.202 44.6025 212.69 46.1465C210.178 47.6438 207.806 49.7728 205.573 52.5334V84.8186ZM204.666 41.3038C207.597 37.9817 210.922 35.2912 214.644 33.2325C218.365 31.1737 222.737 30.1443 227.76 30.1443C231.667 30.1443 235.226 30.9631 238.435 32.6008C241.691 34.2384 244.482 36.6247 246.808 39.7597C249.18 42.8478 250.994 46.6846 252.25 51.2701C253.552 55.8087 254.203 61.0258 254.203 66.9214C254.203 72.3023 253.482 77.2854 252.04 81.8709C250.598 86.4563 248.529 90.4335 245.831 93.8024C243.18 97.1712 239.947 99.8149 236.133 101.733C232.365 103.605 228.132 104.541 223.435 104.541C219.434 104.541 216.016 103.932 213.178 102.716C210.341 101.453 207.806 99.7213 205.573 97.5222V127H188.34V31.4778H198.875C201.108 31.4778 202.573 32.5306 203.271 34.6362L204.666 41.3038Z"/>
<path d="M311.325 45.5149C310.86 46.2635 310.372 46.8016 309.86 47.1291C309.349 47.4099 308.697 47.5502 307.907 47.5502C307.069 47.5502 306.162 47.3163 305.186 46.8484C304.255 46.3805 303.162 45.8658 301.906 45.3043C300.651 44.696 299.209 44.158 297.581 43.6901C295.999 43.2222 294.115 42.9882 291.929 42.9882C288.534 42.9882 285.859 43.7135 283.906 45.164C281.999 46.6145 281.045 48.5095 281.045 50.849C281.045 52.393 281.534 53.7032 282.51 54.7793C283.534 55.8087 284.859 56.7211 286.487 57.5166C288.162 58.312 290.045 59.0372 292.139 59.6923C294.232 60.3006 296.348 60.979 298.488 61.7277C300.674 62.4763 302.813 63.3419 304.907 64.3245C307 65.2603 308.86 66.4769 310.488 67.9742C312.163 69.4247 313.488 71.1793 314.465 73.2381C315.488 75.2968 316 77.7767 316 80.6777C316 84.1402 315.372 87.3453 314.116 90.2931C312.907 93.1941 311.093 95.7207 308.674 97.8731C306.255 99.9787 303.255 101.64 299.674 102.856C296.139 104.026 292.046 104.611 287.394 104.611C284.929 104.611 282.51 104.377 280.138 103.909C277.812 103.488 275.557 102.88 273.37 102.084C271.231 101.289 269.231 100.353 267.37 99.2768C265.556 98.2006 263.951 97.0309 262.556 95.7675L266.533 89.1701C267.045 88.3747 267.649 87.7664 268.347 87.3453C269.045 86.9242 269.928 86.7136 270.998 86.7136C272.068 86.7136 273.068 87.0178 273.998 87.6261C274.975 88.2343 276.091 88.8894 277.347 89.5912C278.603 90.2931 280.068 90.9481 281.743 91.5564C283.464 92.1647 285.627 92.4688 288.231 92.4688C290.278 92.4688 292.022 92.2349 293.464 91.767C294.953 91.2523 296.162 90.5972 297.092 89.8018C298.069 89.0064 298.767 88.0939 299.185 87.0646C299.651 85.9884 299.883 84.8888 299.883 83.7659C299.883 82.0814 299.371 80.7011 298.348 79.6249C297.371 78.5488 296.046 77.613 294.371 76.8175C292.743 76.0221 290.859 75.3202 288.72 74.712C286.627 74.0569 284.464 73.355 282.231 72.6064C280.045 71.8578 277.882 70.9921 275.743 70.0095C273.649 68.9802 271.766 67.6934 270.091 66.1493C268.463 64.6053 267.138 62.7103 266.114 60.4643C265.138 58.2184 264.649 55.5046 264.649 52.3229C264.649 49.3751 265.231 46.5677 266.393 43.9006C267.556 41.2336 269.254 38.9175 271.487 36.9523C273.766 34.9403 276.58 33.3494 279.929 32.1797C283.324 30.9631 287.231 30.3549 291.65 30.3549C296.581 30.3549 301.069 31.1737 305.116 32.8113C309.163 34.449 312.535 36.6013 315.233 39.2684L311.325 45.5149Z"/>
</mask>
<path d="M68.3049 65.1668L56.0254 31.4076C55.4207 29.9103 54.7927 28.1323 54.1416 26.0736C53.4904 24.0148 52.8392 21.7922 52.188 19.4059C51.5833 21.7922 50.9554 24.0382 50.3042 26.1437C49.653 28.2025 49.0251 30.0039 48.4204 31.548L36.2106 65.1668H68.3049ZM101.446 103.488H86.9336C85.3056 103.488 83.9799 103.09 82.9567 102.295C81.9334 101.453 81.1659 100.423 80.6542 99.2066L73.1191 78.502H31.3267L23.7915 99.2066C23.4194 100.283 22.6985 101.265 21.6286 102.154C20.5588 103.043 19.2332 103.488 17.6517 103.488H3L42.6992 2H61.8163L101.446 103.488Z" stroke="white" stroke-width="4" mask="url(#path-1-outside-1)"/>
<path d="M126.264 84.8186C128.218 87.2049 130.334 88.8894 132.613 89.872C134.939 90.8546 137.451 91.3459 140.149 91.3459C142.753 91.3459 145.102 90.8546 147.195 89.872C149.288 88.8894 151.056 87.3921 152.498 85.3801C153.986 83.3681 155.126 80.8415 155.917 77.8001C156.707 74.712 157.103 71.0857 157.103 66.9214C157.103 62.7103 156.754 59.1542 156.056 56.2532C155.405 53.3054 154.451 50.9191 153.196 49.0943C151.94 47.2695 150.405 45.936 148.591 45.0938C146.823 44.2515 144.8 43.8304 142.521 43.8304C138.939 43.8304 135.893 44.6025 133.381 46.1465C130.869 47.6438 128.497 49.7728 126.264 52.5334V84.8186ZM125.357 41.3038C128.288 37.9817 131.613 35.2912 135.334 33.2325C139.056 31.1737 143.428 30.1443 148.451 30.1443C152.358 30.1443 155.917 30.9631 159.126 32.6008C162.382 34.2384 165.173 36.6247 167.499 39.7597C169.871 42.8478 171.685 46.6846 172.941 51.2701C174.243 55.8087 174.894 61.0258 174.894 66.9214C174.894 72.3023 174.173 77.2854 172.731 81.8709C171.289 86.4563 169.22 90.4335 166.522 93.8024C163.87 97.1712 160.638 99.8149 156.824 101.733C153.056 103.605 148.823 104.541 144.125 104.541C140.125 104.541 136.707 103.932 133.869 102.716C131.032 101.453 128.497 99.7213 126.264 97.5222V127H109.031V31.4778H119.566C121.799 31.4778 123.264 32.5306 123.962 34.6362L125.357 41.3038Z" stroke="white" stroke-width="4" mask="url(#path-1-outside-1)"/>
<path d="M205.573 84.8186C207.527 87.2049 209.643 88.8894 211.923 89.872C214.248 90.8546 216.76 91.3459 219.458 91.3459C222.062 91.3459 224.411 90.8546 226.504 89.872C228.598 88.8894 230.365 87.3921 231.807 85.3801C233.295 83.3681 234.435 80.8415 235.226 77.8001C236.016 74.712 236.412 71.0857 236.412 66.9214C236.412 62.7103 236.063 59.1542 235.365 56.2532C234.714 53.3054 233.761 50.9191 232.505 49.0943C231.249 47.2695 229.714 45.936 227.9 45.0938C226.132 44.2515 224.109 43.8304 221.83 43.8304C218.248 43.8304 215.202 44.6025 212.69 46.1465C210.178 47.6438 207.806 49.7728 205.573 52.5334V84.8186ZM204.666 41.3038C207.597 37.9817 210.922 35.2912 214.644 33.2325C218.365 31.1737 222.737 30.1443 227.76 30.1443C231.667 30.1443 235.226 30.9631 238.435 32.6008C241.691 34.2384 244.482 36.6247 246.808 39.7597C249.18 42.8478 250.994 46.6846 252.25 51.2701C253.552 55.8087 254.203 61.0258 254.203 66.9214C254.203 72.3023 253.482 77.2854 252.04 81.8709C250.598 86.4563 248.529 90.4335 245.831 93.8024C243.18 97.1712 239.947 99.8149 236.133 101.733C232.365 103.605 228.132 104.541 223.435 104.541C219.434 104.541 216.016 103.932 213.178 102.716C210.341 101.453 207.806 99.7213 205.573 97.5222V127H188.34V31.4778H198.875C201.108 31.4778 202.573 32.5306 203.271 34.6362L204.666 41.3038Z" stroke="white" stroke-width="4" mask="url(#path-1-outside-1)"/>
<path d="M311.325 45.5149C310.86 46.2635 310.372 46.8016 309.86 47.1291C309.349 47.4099 308.697 47.5502 307.907 47.5502C307.069 47.5502 306.162 47.3163 305.186 46.8484C304.255 46.3805 303.162 45.8658 301.906 45.3043C300.651 44.696 299.209 44.158 297.581 43.6901C295.999 43.2222 294.115 42.9882 291.929 42.9882C288.534 42.9882 285.859 43.7135 283.906 45.164C281.999 46.6145 281.045 48.5095 281.045 50.849C281.045 52.393 281.534 53.7032 282.51 54.7793C283.534 55.8087 284.859 56.7211 286.487 57.5166C288.162 58.312 290.045 59.0372 292.139 59.6923C294.232 60.3006 296.348 60.979 298.488 61.7277C300.674 62.4763 302.813 63.3419 304.907 64.3245C307 65.2603 308.86 66.4769 310.488 67.9742C312.163 69.4247 313.488 71.1793 314.465 73.2381C315.488 75.2968 316 77.7767 316 80.6777C316 84.1402 315.372 87.3453 314.116 90.2931C312.907 93.1941 311.093 95.7207 308.674 97.8731C306.255 99.9787 303.255 101.64 299.674 102.856C296.139 104.026 292.046 104.611 287.394 104.611C284.929 104.611 282.51 104.377 280.138 103.909C277.812 103.488 275.557 102.88 273.37 102.084C271.231 101.289 269.231 100.353 267.37 99.2768C265.556 98.2006 263.951 97.0309 262.556 95.7675L266.533 89.1701C267.045 88.3747 267.649 87.7664 268.347 87.3453C269.045 86.9242 269.928 86.7136 270.998 86.7136C272.068 86.7136 273.068 87.0178 273.998 87.6261C274.975 88.2343 276.091 88.8894 277.347 89.5912C278.603 90.2931 280.068 90.9481 281.743 91.5564C283.464 92.1647 285.627 92.4688 288.231 92.4688C290.278 92.4688 292.022 92.2349 293.464 91.767C294.953 91.2523 296.162 90.5972 297.092 89.8018C298.069 89.0064 298.767 88.0939 299.185 87.0646C299.651 85.9884 299.883 84.8888 299.883 83.7659C299.883 82.0814 299.371 80.7011 298.348 79.6249C297.371 78.5488 296.046 77.613 294.371 76.8175C292.743 76.0221 290.859 75.3202 288.72 74.712C286.627 74.0569 284.464 73.355 282.231 72.6064C280.045 71.8578 277.882 70.9921 275.743 70.0095C273.649 68.9802 271.766 67.6934 270.091 66.1493C268.463 64.6053 267.138 62.7103 266.114 60.4643C265.138 58.2184 264.649 55.5046 264.649 52.3229C264.649 49.3751 265.231 46.5677 266.393 43.9006C267.556 41.2336 269.254 38.9175 271.487 36.9523C273.766 34.9403 276.58 33.3494 279.929 32.1797C283.324 30.9631 287.231 30.3549 291.65 30.3549C296.581 30.3549 301.069 31.1737 305.116 32.8113C309.163 34.449 312.535 36.6013 315.233 39.2684L311.325 45.5149Z" stroke="white" stroke-width="4" mask="url(#path-1-outside-1)"/>
</svg>
