<svg width="633" height="150" viewBox="0 0 633 150" fill="none" xmlns="http://www.w3.org/2000/svg">
<path d="M43.8687 103.628C47.9231 103.628 51.3288 103.14 54.0858 102.166C56.8428 101.191 59.0322 99.8917 60.654 98.2675C62.3298 96.6432 63.5191 94.7482 64.2219 92.5826C64.9787 90.4169 65.3571 88.1159 65.3571 85.6795C65.3571 83.1348 64.9517 80.8609 64.1408 78.8576C63.3299 76.8002 62.0595 75.0677 60.3296 73.66C58.5998 72.1982 56.3563 71.0882 53.5993 70.3303C50.8964 69.5723 47.6258 69.1933 43.7876 69.1933H21.8127V103.628H43.8687ZM21.8127 20.1408V54.0877H39.1656C46.6257 54.0877 52.2479 52.7342 56.032 50.0271C59.8701 47.32 61.7892 43.0157 61.7892 37.1142C61.7892 30.9962 60.0593 26.6378 56.5996 24.039C53.1398 21.4402 47.7339 20.1408 40.3819 20.1408H21.8127ZM40.3819 3.24851C48.0583 3.24851 54.6264 3.97942 60.0864 5.44126C65.5463 6.90309 70.0062 8.98755 73.4659 11.6946C76.9798 14.4017 79.5475 17.6773 81.1693 21.5214C82.7911 25.3655 83.602 29.6968 83.602 34.5154C83.602 37.2767 83.1965 39.9296 82.3856 42.4743C81.5748 44.9648 80.3044 47.32 78.5745 49.5398C76.8987 51.7055 74.7363 53.6816 72.0874 55.4683C69.4926 57.255 66.3842 58.771 62.7623 60.0162C78.8718 63.6437 86.9266 72.3606 86.9266 86.1668C86.9266 91.1478 85.9806 95.7499 84.0885 99.9729C82.1964 104.196 79.4394 107.851 75.8175 110.937C72.1955 113.969 67.7357 116.351 62.4379 118.083C57.1402 119.816 51.0856 120.682 44.2742 120.682H0V3.24851H40.3819Z" fill="white"/>
<path d="M120.892 51.8138C123.487 46.8327 126.569 42.9345 130.136 40.1191C133.704 37.2496 137.921 35.8148 142.786 35.8148C146.624 35.8148 149.706 36.654 152.03 38.3324L150.733 53.3568C150.463 54.3313 150.057 55.0352 149.517 55.4683C149.03 55.8473 148.354 56.0368 147.489 56.0368C146.678 56.0368 145.462 55.9015 143.84 55.6308C142.273 55.36 140.732 55.2247 139.218 55.2247C137.002 55.2247 135.029 55.5495 133.299 56.1992C131.569 56.8489 130.001 57.7964 128.596 59.0417C127.244 60.2328 126.028 61.6946 124.947 63.4272C123.92 65.1597 122.947 67.1359 122.028 69.3557V120.682H101.999V37.3579H113.757C115.811 37.3579 117.243 37.7369 118.054 38.4949C118.865 39.1987 119.406 40.4981 119.676 42.3931L120.892 51.8138Z" fill="white"/>
<path d="M205.339 85.111C199.555 85.3817 194.69 85.8961 190.744 86.654C186.797 87.3579 183.635 88.2783 181.256 89.4153C178.878 90.5522 177.175 91.8787 176.148 93.3947C175.121 94.9107 174.607 96.562 174.607 98.3487C174.607 101.868 175.634 104.385 177.688 105.901C179.797 107.417 182.527 108.175 185.878 108.175C189.987 108.175 193.528 107.444 196.501 105.983C199.528 104.467 202.474 102.193 205.339 99.1608V85.111ZM159.444 48.9713C169.012 40.2003 180.526 35.8148 193.987 35.8148C198.852 35.8148 203.204 36.627 207.042 38.2512C210.88 39.8213 214.124 42.0411 216.773 44.9107C219.422 47.726 221.422 51.1099 222.773 55.0623C224.179 59.0146 224.882 63.346 224.882 68.0563V120.682H215.8C213.908 120.682 212.448 120.411 211.421 119.87C210.394 119.274 209.583 118.11 208.988 116.378L207.204 110.368C205.096 112.263 203.042 113.942 201.042 115.403C199.042 116.811 196.96 118.002 194.798 118.977C192.636 119.951 190.311 120.682 187.824 121.169C185.392 121.711 182.689 121.982 179.716 121.982C176.202 121.982 172.958 121.521 169.985 120.601C167.012 119.626 164.444 118.192 162.282 116.297C160.119 114.402 158.443 112.047 157.254 109.231C156.065 106.416 155.47 103.14 155.47 99.4044C155.47 97.2929 155.822 95.2084 156.524 93.1511C157.227 91.0395 158.362 89.0363 159.93 87.1413C161.552 85.2464 163.633 83.4597 166.174 81.7813C168.715 80.1029 171.823 78.641 175.499 77.3958C179.229 76.1505 183.554 75.1489 188.473 74.3909C193.392 73.5788 199.015 73.0915 205.339 72.9291V68.0563C205.339 62.4797 204.15 58.3649 201.772 55.712C199.393 53.0049 195.96 51.6513 191.473 51.6513C188.23 51.6513 185.527 52.0303 183.365 52.7883C181.256 53.5463 179.391 54.4126 177.769 55.3871C176.148 56.3075 174.661 57.1467 173.31 57.9047C172.012 58.6627 170.553 59.0417 168.931 59.0417C167.525 59.0417 166.336 58.6898 165.363 57.9859C164.39 57.2279 163.606 56.3617 163.011 55.3871L159.444 48.9713Z" fill="white"/>
<path d="M262.476 47.5907C264.152 45.9123 265.909 44.3692 267.747 42.9616C269.639 41.4997 271.612 40.2815 273.666 39.307C275.775 38.2783 278.018 37.4932 280.397 36.9518C282.775 36.3563 285.37 36.0585 288.181 36.0585C292.722 36.0585 296.75 36.8435 300.263 38.4136C303.777 39.9296 306.696 42.0953 309.021 44.9107C311.399 47.6719 313.183 51.0016 314.373 54.8998C315.616 58.7439 316.238 62.994 316.238 67.6502V120.682H296.209V67.6502C296.209 62.5609 295.047 58.6356 292.722 55.8744C290.398 53.059 286.857 51.6513 282.1 51.6513C278.64 51.6513 275.396 52.4364 272.369 54.0065C269.342 55.5766 266.477 57.7152 263.774 60.4223V120.682H243.745V37.3579H255.989C258.584 37.3579 260.287 38.5761 261.098 41.0124L262.476 47.5907Z" fill="white"/>
<path d="M387.507 58.6356C385.236 55.8744 382.75 53.9253 380.047 52.7883C377.398 51.6513 374.533 51.0828 371.451 51.0828C368.424 51.0828 365.694 51.6513 363.261 52.7883C360.829 53.9253 358.747 55.6578 357.018 57.9859C355.288 60.2599 353.963 63.1835 353.044 66.7569C352.125 70.2761 351.666 74.445 351.666 79.2637C351.666 84.1364 352.044 88.2783 352.801 91.6892C353.612 95.046 354.747 97.8073 356.207 99.9729C357.666 102.084 359.45 103.628 361.558 104.602C363.667 105.522 366.018 105.983 368.613 105.983C372.776 105.983 376.317 105.116 379.236 103.384C382.155 101.651 384.912 99.1879 387.507 95.9935V58.6356ZM407.535 0V120.682H395.291C392.642 120.682 390.966 119.464 390.264 117.028L388.561 108.988C385.209 112.832 381.344 115.945 376.965 118.327C372.641 120.709 367.586 121.9 361.802 121.9C357.261 121.9 353.098 120.953 349.314 119.058C345.53 117.163 342.259 114.429 339.502 110.855C336.8 107.228 334.691 102.761 333.178 97.4553C331.718 92.1494 330.988 86.0855 330.988 79.2637C330.988 73.0915 331.826 67.3525 333.502 62.0466C335.178 56.7407 337.583 52.1386 340.719 48.2404C343.854 44.3422 347.611 41.3102 351.99 39.1446C356.369 36.9247 361.288 35.8148 366.748 35.8148C371.397 35.8148 375.37 36.5458 378.668 38.0076C381.966 39.4694 384.912 41.4456 387.507 43.9361V0H407.535Z" fill="white"/>
<path d="M448.061 37.3579V120.682H427.951V37.3579H448.061ZM450.818 13.0753C450.818 14.8078 450.466 16.432 449.763 17.948C449.061 19.464 448.115 20.7905 446.925 21.9274C445.79 23.0644 444.439 23.9848 442.871 24.6887C441.303 25.3384 439.627 25.6632 437.843 25.6632C436.114 25.6632 434.465 25.3384 432.897 24.6887C431.383 23.9848 430.059 23.0644 428.924 21.9274C427.789 20.7905 426.87 19.464 426.167 17.948C425.518 16.432 425.194 14.8078 425.194 13.0753C425.194 11.2886 425.518 9.61018 426.167 8.04006C426.87 6.46995 427.789 5.11641 428.924 3.97943C430.059 2.84245 431.383 1.94911 432.897 1.29941C434.465 0.595562 436.114 0.24364 437.843 0.24364C439.627 0.24364 441.303 0.595562 442.871 1.29941C444.439 1.94911 445.79 2.84245 446.925 3.97943C448.115 5.11641 449.061 6.46995 449.763 8.04006C450.466 9.61018 450.818 11.2886 450.818 13.0753Z" fill="white"/>
<path d="M487.211 47.5907C488.887 45.9123 490.644 44.3692 492.482 42.9616C494.374 41.4997 496.347 40.2815 498.401 39.307C500.509 38.2783 502.753 37.4932 505.131 36.9518C507.51 36.3563 510.105 36.0585 512.916 36.0585C517.457 36.0585 521.484 36.8435 524.998 38.4136C528.512 39.9296 531.431 42.0953 533.756 44.9107C536.134 47.6719 537.918 51.0016 539.107 54.8998C540.351 58.7439 540.972 62.994 540.972 67.6502V120.682H520.944V67.6502C520.944 62.5609 519.781 58.6356 517.457 55.8744C515.132 53.059 511.592 51.6513 506.834 51.6513C503.375 51.6513 500.131 52.4364 497.104 54.0065C494.076 55.5766 491.211 57.7152 488.508 60.4223V120.682H468.48V37.3579H480.724C483.319 37.3579 485.022 38.5761 485.832 41.0124L487.211 47.5907Z" fill="white"/>
<path d="M590.429 76.9897C592.915 76.9897 595.078 76.6649 596.916 76.0152C598.754 75.3113 600.267 74.3638 601.457 73.1727C602.7 71.9816 603.619 70.5468 604.214 68.8684C604.862 67.19 605.187 65.3492 605.187 63.346C605.187 59.2312 603.943 55.9827 601.457 53.6004C599.024 51.164 595.348 49.9459 590.429 49.9459C585.509 49.9459 581.806 51.164 579.32 53.6004C576.887 55.9827 575.671 59.2312 575.671 63.346C575.671 65.2951 575.968 67.1088 576.563 68.7872C577.211 70.4656 578.13 71.9274 579.32 73.1727C580.563 74.3638 582.104 75.3113 583.942 76.0152C585.834 76.6649 587.996 76.9897 590.429 76.9897ZM613.052 124.418C613.052 122.794 612.566 121.467 611.593 120.439C610.62 119.41 609.295 118.625 607.619 118.083C605.944 117.488 603.97 117.055 601.7 116.784C599.484 116.513 597.105 116.324 594.564 116.215C592.078 116.053 589.483 115.918 586.78 115.809C584.131 115.701 581.536 115.485 578.995 115.16C576.779 116.405 574.968 117.867 573.562 119.545C572.211 121.224 571.535 123.173 571.535 125.393C571.535 126.854 571.887 128.208 572.589 129.453C573.346 130.753 574.508 131.862 576.076 132.783C577.698 133.703 579.779 134.407 582.32 134.894C584.861 135.436 587.969 135.707 591.645 135.707C595.375 135.707 598.592 135.409 601.295 134.813C603.997 134.272 606.214 133.487 607.944 132.458C609.728 131.483 611.025 130.292 611.836 128.885C612.647 127.531 613.052 126.042 613.052 124.418ZM633 40.2003V47.6719C633 50.0541 631.567 51.516 628.702 52.0574L621.242 53.438C622.377 56.3075 622.945 59.4478 622.945 62.8587C622.945 66.9735 622.107 70.7093 620.431 74.0661C618.81 77.3687 616.539 80.1841 613.62 82.5122C610.701 84.8403 607.241 86.654 603.241 87.9534C599.294 89.1987 595.024 89.8213 590.429 89.8213C588.807 89.8213 587.239 89.7401 585.726 89.5777C584.212 89.4153 582.725 89.1987 581.266 88.928C578.671 90.4981 577.373 92.2577 577.373 94.2068C577.373 95.8852 578.13 97.1305 579.644 97.9426C581.212 98.7006 583.266 99.242 585.807 99.5669C588.347 99.8917 591.24 100.108 594.483 100.217C597.727 100.271 601.051 100.433 604.457 100.704C607.863 100.975 611.187 101.462 614.431 102.166C617.674 102.815 620.567 103.871 623.107 105.333C625.648 106.795 627.675 108.798 629.189 111.343C630.757 113.833 631.54 117.055 631.54 121.007C631.54 124.689 630.621 128.262 628.783 131.727C626.999 135.192 624.378 138.278 620.918 140.985C617.512 143.692 613.296 145.858 608.268 147.482C603.295 149.161 597.619 150 591.24 150C584.969 150 579.509 149.377 574.86 148.132C570.211 146.941 566.345 145.317 563.264 143.259C560.183 141.256 557.885 138.928 556.372 136.275C554.858 133.622 554.101 130.861 554.101 127.991C554.101 124.093 555.263 120.845 557.588 118.246C559.967 115.593 563.21 113.481 567.319 111.911C565.102 110.774 563.345 109.258 562.048 107.363C560.75 105.468 560.102 102.978 560.102 99.8917C560.102 98.6465 560.318 97.3741 560.75 96.0747C561.237 94.7212 561.913 93.3947 562.778 92.0953C563.697 90.7959 564.832 89.5777 566.183 88.4407C567.535 87.2496 569.13 86.1938 570.968 85.2734C566.751 82.9995 563.426 79.9675 560.994 76.1776C558.615 72.3877 557.426 67.948 557.426 62.8587C557.426 58.7439 558.237 55.0352 559.858 51.7325C561.534 48.3757 563.832 45.5333 566.751 43.2052C569.724 40.823 573.211 39.0092 577.211 37.7639C581.266 36.5187 585.671 35.8961 590.429 35.8961C593.997 35.8961 597.348 36.275 600.484 37.033C603.619 37.7369 606.484 38.7926 609.079 40.2003H633Z" fill="white"/>
</svg>
