<svg width="1647" height="1647" viewBox="0 0 1647 1647" fill="none" xmlns="http://www.w3.org/2000/svg">
<path fill-rule="evenodd" clip-rule="evenodd" d="M412.762 411.413C412.762 184.197 596.957 0 824.175 0H1235.59H1647V36.3011C1647 243.47 1479.06 411.413 1271.89 411.413H1235.59V822.826V859.127C1235.59 1066.3 1067.64 1234.24 860.476 1234.24H824.175V822.826V411.413H412.762Z" fill="white"/>
<path fill-rule="evenodd" clip-rule="evenodd" d="M412.087 412.762V824.175V1235.59H824.174V1271.89C824.174 1479.06 655.956 1647 448.448 1647H412.087H375.727C168.218 1647 0 1479.06 0 1271.89V1235.59V824.175V787.873C0 580.705 168.218 412.762 375.727 412.762H412.087Z" fill="white"/>
</svg>
