<svg width="1647" height="1647" viewBox="0 0 1647 1647" fill="none" xmlns="http://www.w3.org/2000/svg">
<path d="M419.821 404.413C423.557 184.292 603.161 7 824.175 7H1235.59H1640V36.3011C1640 239.604 1475.19 404.413 1271.89 404.413H1235.59H1228.59V411.413V822.826V859.127C1228.59 1062.43 1063.78 1227.24 860.476 1227.24H831.175V822.826V411.413V404.413H824.175H419.821Z" stroke="white" stroke-width="14"/>
<path d="M817.174 1242.59V1271.89C817.174 1475.18 652.101 1640 448.448 1640H412.087H375.727C172.073 1640 7 1475.18 7 1271.89V1235.59V824.175V787.873C7 584.581 172.073 419.762 375.727 419.762H405.087V824.175V1235.59V1242.59H412.087H817.174Z" stroke="white" stroke-width="14"/>
</svg>
